<svg width="256" xmlns="http://www.w3.org/2000/svg" height="256" fill="none"><path d="M151.369 147.315A60.27 60.27 0 0 1 128 152a60.262 60.262 0 0 1-23.288-4.651c2.419-15.905 11.023-29.772 23.274-39.072 12.318 9.329 20.923 23.207 23.383 39.038Z" style="fill: rgb(56, 217, 169); fill-opacity: 1;" class="fills"/><g style="fill: rgb(0, 0, 0);"><path d="M191.69 98.3c.2-2.07.31-4.17.31-6.3 0-35.346-28.654-64-64-64-35.346 0-64 28.654-64 64 0 2.13.11 4.23.31 6.3A64 64 0 1 0 128 208.88a64.002 64.002 0 0 0 100.147-54.531A64 64 0 0 0 191.69 98.3ZM72 92c0-30.928 25.072-56 56-56s56 25.072 56 56c0 1.07 0 2.13-.1 3.18a63.84 63.84 0 0 0-55.9 7.94 63.84 63.84 0 0 0-55.9-7.94C72 94.13 72 93.07 72 92Zm76 64a55.883 55.883 0 0 1-20 42.85A55.883 55.883 0 0 1 108 156c0-1.07 0-2.13.1-3.18a63.856 63.856 0 0 0 39.8 0c.1 1.05.1 2.11.1 3.18Zm-20-8a55.62 55.62 0 0 1-18.86-3.28A56.055 56.055 0 0 1 128 113.15a56.055 56.055 0 0 1 18.86 31.57A55.62 55.62 0 0 1 128 148Zm-26.3-6.58a56.179 56.179 0 0 1-28.56-38.14 55.87 55.87 0 0 1 48.21 5 64.064 64.064 0 0 0-19.65 33.14Zm33-33.09a55.87 55.87 0 0 1 48.21-5 56.179 56.179 0 0 1-28.56 38.14 64.313 64.313 0 0 0-19.65-33.14ZM92 212c-25.693-.017-48.078-17.516-54.297-42.445-6.219-24.928 5.323-50.891 27.997-62.975a64.257 64.257 0 0 0 34.61 43.12c-.2 2.07-.31 4.17-.31 6.3a63.87 63.87 0 0 0 21.35 47.67A55.703 55.703 0 0 1 92 212Zm72 0a55.703 55.703 0 0 1-29.35-8.33A63.87 63.87 0 0 0 156 156c0-2.13-.11-4.23-.31-6.3a64.257 64.257 0 0 0 34.61-43.12c22.674 12.084 34.216 38.047 27.997 62.975C212.078 194.484 189.693 211.983 164 212Z" style="fill: rgb(195, 250, 232); fill-opacity: 1;" class="fills"/></g></svg>