<svg width="450" xmlns="http://www.w3.org/2000/svg" height="450" fill="none">
  <g style="fill:#000">
    <rect rx="0" ry="0" width="450" height="450" style="fill:#c3fae8;fill-opacity:1" class="fills"/>
    <rect rx="0" ry="0" x="44.617" y="39.019" width="360.767" height="371.963" style="fill:#f06595;fill-opacity:1" class="fills"/>
    <path d="m237.022 0-14.617 135.465-14.528 135.465 121.062-54.74L450 161.541 343.466 80.724 237.022 0Zm78.105 282.541 30.849-2.127-2.063-31.901-30.848 2.219 2.062 31.809ZM67.631 187.279c-21.881 4.623-45.286-4.623-63.938-24.966-2.511-2.774-3.856-6.288-3.677-10.172.093-3.712 1.626-7.231 4.255-9.768 2.63-2.538 6.136-3.882 9.734-3.732 3.587 0 6.995 1.572 9.506 4.346 12.285 13.408 26.006 19.418 38.829 16.644 12.644-2.589 23.136-13.593 29.414-30.977 9.505-26.26 27.619-44.107 49.5-48.638 21.881-4.623 45.286 4.624 63.939 24.967 4.842 5.27 5.021 13.223.538 18.678l-1.077 1.202c-5.38 5.271-14.079 4.993-19.19-.647-12.285-13.408-26.006-19.418-38.74-16.644-12.734 2.589-23.315 13.593-29.503 30.976-8.25 22.747-22.777 39.022-40.802 45.957-2.87 1.294-5.739 2.219-8.788 2.774Zm77.479-87.844c15.514-3.144 31.925 3.698 46.183 19.233a5.564 5.564 0 0 0 4.275 1.809 5.585 5.585 0 0 0 4.154-2.087c1.794-2.219 1.794-5.548-.269-7.674-16.769-18.309-37.394-26.539-56.495-22.47-19.19 3.976-35.063 19.881-43.582 43.46-7.353 20.065-19.908 32.826-35.422 36.155-15.514 3.236-31.924-3.514-46.182-19.141-1.536-1.753-3.957-2.355-6.099-1.516-2.142.838-3.565 2.945-3.586 5.307-.09 1.572.448 2.959 1.524 4.161 16.769 18.309 37.395 26.538 56.495 22.47 19.191-3.976 35.063-19.881 43.672-43.46 6.277-17.476 16.59-29.405 29.414-34.398a37.129 37.129 0 0 1 5.918-1.849ZM5.998 277.548l167.244-53.909 23.031 75.799 29.339 96.561L58.368 450 5.998 277.548Zm158.546-36.71L22.857 286.702l44.299 146.099 141.777-45.772-44.389-146.191ZM360.49 404.563l11.837-8.414-41.556-69.509-11.837 8.507 41.556 69.416Z" style="fill:#343a40;fill-opacity:1" class="fills"/>
  </g>
</svg>
