<?xml version="1.0" encoding="UTF-8" standalone="no"?>
<!DOCTYPE svg PUBLIC "-//W3C//DTD SVG 1.1//EN" "http://www.w3.org/Graphics/SVG/1.1/DTD/svg11.dtd">
<svg width="100%" height="100%" viewBox="0 0 501 501" version="1.1" xmlns="http://www.w3.org/2000/svg" xmlns:xlink="http://www.w3.org/1999/xlink" xml:space="preserve" xmlns:serif="http://www.serif.com/" style="fill-rule:evenodd;clip-rule:evenodd;stroke-linejoin:round;stroke-miterlimit:2;">
    <g transform="matrix(1,0,0,1,-2.49485,-0.000383275)">
        <g transform="matrix(1,0,0,1,-232.634,-98.3263)">
            <g id="cg-logo" transform="matrix(0.489085,0,0,0.489085,111.349,-26.9539)">
                <g id="background" transform="matrix(1.02232,0,0,1.02232,-28.4624,-29.7204)">
                    <g id="background1" serif:id="background" transform="matrix(1,0,0,1,275.4,279.632)">
                        <path d="M1000,500C1000,224.042 775.958,0 500,0C224.042,0 0,224.042 0,500C0,775.958 224.042,1000 500,1000C775.958,1000 1000,775.958 1000,500Z" style="fill:rgb(33,37,41);"/>
                    </g>
                    <g id="sun" transform="matrix(4.40785,0,0,4.40785,-1591.01,-1476.86)">
                        <path d="M524.324,406.709C473.626,413.61 430.99,456.101 430.99,508.685C430.99,520.435 431.546,531.748 435.224,543.032C436.191,546.003 437.003,551.543 439.688,553.464C442.671,555.599 449.856,554.232 453.39,554.232L584.804,554.232C599.763,554.232 617.043,556.664 631.765,554.122C636.91,553.233 638.708,541.351 639.777,537.059C644.497,518.09 643.485,497.329 637.319,478.819C621.796,432.213 573.78,399.977 524.324,406.709M440.697,556.472C441.612,559.648 443.175,564.343 446.169,566.158C448.819,567.765 453.399,566.925 456.377,566.925L595.257,566.925C608.553,566.925 628.082,572.123 632.59,556.472L440.697,556.472M448.91,571.405C455.933,583.731 472.228,579.619 484.75,579.619L586.297,579.619C599.161,579.619 617.173,584.048 624.377,571.405L448.91,571.405M461.604,586.339C468.175,595.635 482.749,592.312 492.964,592.312L578.83,592.312C589.284,592.312 604.97,595.837 611.684,586.339L461.604,586.339M480.27,601.272L480.27,602.019C488.112,606.747 498.266,605.005 507.15,605.005L565.39,605.005C574.274,605.005 585.315,607.03 593.017,602.019C584.286,598.355 568.921,601.272 559.417,601.272L480.27,601.272M516.857,615.459L516.857,616.205C529.932,618.642 543.355,618.642 556.43,616.205L543.737,615.459L516.857,615.459" style="fill:rgb(248,249,250);fill-rule:nonzero;"/>
                    </g>
                </g>
                <g id="crystal" transform="matrix(0.180125,0,0,0.180125,1106.36,592.91)">
                    <g id="backer" transform="matrix(2.04463,0,0,2.04463,-4761.41,-1746.15)">
                        <path d="M1093.98,316.794C1104.03,296.622 1120.42,298.389 1150.96,280.411C1223.91,237.476 1351.16,167.288 1449.72,113.641C1476.98,98.809 1499.94,70.496 1523.15,73.864C1546.36,77.231 1561.99,100.626 1588.96,133.846C1726.23,315.882 1867.73,478.157 2027.61,697.589C2047.24,724.542 2080.6,753.008 2087.38,781.177C2094.15,809.345 2074.61,838.685 2068.26,866.598C2005.87,1140.94 1945.68,1362.18 1886.36,1562.77C2008.36,1505.05 2117.74,1458.27 2192.85,1441.19C2225.89,1433.68 2260.76,1427.51 2270.23,1437.5C2279.71,1447.49 2256.49,1479.88 2249.69,1501.11C2184.81,1703.75 2121.77,1912.97 1981.78,2237.48C1918.28,2384.69 1925.49,2479.79 1883.87,2542.99C1803.11,2665.61 1569.98,2692.88 1430.42,2685.3C1261.89,2676.15 963.31,2629.43 884.383,2540.64C724.262,2360.49 704.635,2089.17 559.44,1637.05C559.44,1637.05 512.834,1530.69 530.064,1479.59C568.057,1366.93 681.866,1023.98 738.105,875.563C750.796,842.071 750.668,813.436 765.85,809.684C781.033,805.932 805.566,833.437 829.2,853.051C895.779,908.306 984.193,1002.98 1110.11,1124.26C1102.7,892.926 1085.46,568.837 1087.06,408.689C1087.53,362.011 1083.33,338.174 1093.98,316.794Z" style="fill:rgb(33,37,41);"/>
                    </g>
                    <g id="right" transform="matrix(2.04463,0,0,2.04463,-4761.41,-1746.15)">
                        <g transform="matrix(1,0,0,1,23,0)">
                            <path d="M1584.25,2629.7C1624.98,2623.17 1634.72,2587.05 1651.45,2553.65L1752.88,2350.85C1855.27,2146.09 1959.79,1942.21 2062.23,1737.38C2105.23,1651.32 2155.8,1567.75 2192.82,1478.81L1944.32,1570.07L1857.35,1608.85L1832.75,1686.68L1777.58,1894.55L1645.72,2391.41L1584.25,2629.7Z" style="fill:rgb(56,217,169);"/>
                        </g>
                        <g transform="matrix(1,0,0,1,36,0)">
                            <path d="M2137.03,1615.7L1775.7,2335.64L1640.04,2614.49C1677.57,2608.95 1756.73,2591.65 1781.68,2561.26C1825.14,2508.16 1844.46,2405.11 1868.51,2340.71C1927.28,2183.15 1988.54,2026.53 2047.88,1869.2C2069.58,1811.67 2091.03,1753.97 2113.7,1696.82C2122.99,1673.42 2142.2,1640.78 2137.03,1615.7Z" style="fill:rgb(56,217,169);"/>
                        </g>
                    </g>
                    <g id="center" transform="matrix(2.04463,0,0,2.04463,-4761.41,-1746.15)">
                        <g transform="matrix(1,0,0,1,11,0)">
                            <path d="M2015.32,921.117L1249.55,2624.63C1249.55,2624.63 1420.9,2648.78 1472.69,2649.97C1502.5,2650.66 1560.27,2631.78 1560.27,2631.78L1594.4,2523.23L1672.34,2229.16L1919.73,1291.22L1990.73,1032.65L2015.32,921.117Z" style="fill:rgb(56,217,169);"/>
                        </g>
                        <g transform="matrix(1,0,0,1,0,-27)">
                            <path d="M1132.9,353.285L1132.9,358.353L1487.9,524.552L2030.53,779.163L1883.46,586.503L1657.28,297.515L1566,180.905L1523.2,139.473L1416.9,191.805L1132.9,353.285Z" style="fill:rgb(56,217,169);"/>
                        </g>
                        <g transform="matrix(1,0,0,1,0,-22)">
                            <path d="M1122.76,373.564L1143.04,1174.62L1401.68,1069.62L2045.75,804.516L1847.96,708.888L1498.04,544.631L1244.47,424.971L1122.76,373.564Z" style="fill:rgb(56,217,169);"/>
                        </g>
                        <path d="M1239.4,2619.56L1425.47,2203.83L1816.83,1331.79L1956.03,1022.52L2045.75,814.653L1787.1,918.967L1366.18,1092.13L1203.9,1159.46L1146.1,1191.83L1147.66,1301.37L1152.99,1529.52L1168.4,2305.22L1173.47,2513.1L1178.69,2597.11L1239.4,2619.56Z" style="fill:rgb(56,217,169);"/>
                    </g>
                    <g id="left" transform="matrix(2.04463,0,0,2.04463,-4761.41,-1746.15)">
                        <g transform="matrix(1,0,0,1,-5,0)">
                            <path d="M808.333,885.629C864.343,1319.22 978.838,1747.41 1052.17,2178.47C1070.03,2283.45 1090.72,2388.39 1111.6,2492.81C1119.37,2531.68 1116.79,2582.48 1158.26,2599.28L1133.1,1575.15L1127.83,1306.44L1122.62,1184.78L1036.54,1098.57L808.333,885.629Z" style="fill:rgb(56,217,169);"/>
                        </g>
                        <g transform="matrix(1,0,0,1,-21,0)">
                            <path d="M788.048,895.763C743.444,1032.8 698.4,1169.69 652.809,1306.43C635.208,1359.23 594.281,1433.08 596.749,1488.95C599.754,1557 658.271,1644.58 685.195,1706.96C752.228,1862.28 818.43,2017.96 885.165,2173.4C926.511,2269.71 967.909,2366 1009.05,2462.39C1033.21,2518.99 1045.14,2567.39 1112.62,2579L1038.52,2193.68L883.405,1377.41L820.506,1042.8L788.048,895.763Z" style="fill:rgb(56,217,169);"/>
                        </g>
                        <g transform="matrix(1,0,0,1,-42,0)">
                            <path d="M640.983,1651.19C689.612,1861.33 765.887,2067.73 826.474,2274.8C862.07,2396.46 888.609,2503.83 1026.41,2543.51C956.605,2338.51 855.03,2139.07 769.192,1940.18C731.016,1851.73 701.383,1725.93 640.983,1651.19Z" style="fill:rgb(56,217,169);"/>
                        </g>
                    </g>
                </g>
            </g>
        </g>
    </g>
</svg>
