<?xml version="1.0" encoding="UTF-8" standalone="no"?>
<!DOCTYPE svg PUBLIC "-//W3C//DTD SVG 1.1//EN" "http://www.w3.org/Graphics/SVG/1.1/DTD/svg11.dtd">
<svg width="100%" height="100%" viewBox="0 0 695 101" version="1.1" xmlns="http://www.w3.org/2000/svg" xmlns:xlink="http://www.w3.org/1999/xlink" xml:space="preserve" xmlns:serif="http://www.serif.com/" style="fill-rule:evenodd;clip-rule:evenodd;stroke-linejoin:round;stroke-miterlimit:2;">
    <g transform="matrix(1,0,0,1,-190.22,-167.467)">
        <g id="logo" transform="matrix(1.2,0,0,1.2,-90.0387,202.474)">
            <g id="backer-back" transform="matrix(0.938385,0,-0.37585,1.03262,50.4669,-94.4136)">
                <rect x="253.055" y="68.022" width="586.114" height="76.665" style="fill:rgb(240,101,149);"/>
            </g>
            <g id="backer-front" transform="matrix(0.938385,0,0.375845,1.03262,-29.4793,-99.4136)">
                <rect x="253.055" y="68.022" width="586.114" height="76.665" style="fill:rgb(195,250,232);"/>
            </g>
            <g id="Good-Egg-Math" serif:id="Good Egg Math" transform="matrix(1,0,0,1,-86.3466,31.0933)">
                <g id="Math" transform="matrix(1,0,0,1,334.951,-66.6262)">
                    <g id="Math-blocks" transform="matrix(0.833333,0,0,0.833333,443.63,69.2063)">
                        <path id="h" d="M106.861,-28.724L106.861,2.059L77.519,2.059C77.279,1.03 77.159,0 77.159,-1.03C77.159,-2.059 77.279,-3.089 77.519,-4.118L98.522,-4.118C99.62,-4.118 100.478,-4.264 101.096,-4.556C101.713,-4.847 102.142,-5.251 102.383,-5.765C102.623,-6.28 102.743,-6.864 102.743,-7.516L102.743,-28.724L106.861,-28.724ZM48.177,-28.724L52.295,-28.724L52.295,-7.516C52.295,-6.864 52.415,-6.28 52.655,-5.765C52.895,-5.251 53.324,-4.847 53.942,-4.556C54.56,-4.264 55.418,-4.118 56.516,-4.118L77.519,-4.118C77.793,-3.089 77.931,-2.059 77.931,-1.03C77.931,0 77.793,1.03 77.519,2.059L48.177,2.059L48.177,-28.724ZM48.177,-29.651L48.177,-62.391L80.299,-62.391L80.299,-51.889L106.861,-51.889L106.861,-29.548L102.743,-29.548L102.743,-31.401C102.743,-33.323 102.546,-35.048 102.151,-36.575C101.756,-38.102 101.164,-39.44 100.375,-40.59C99.586,-41.74 98.599,-42.692 97.415,-43.447C96.231,-44.202 94.85,-44.768 93.271,-45.146C91.692,-45.523 89.908,-45.712 87.917,-45.712L78.857,-45.712C77.931,-45.712 77.253,-45.875 76.824,-46.201C76.395,-46.527 76.18,-47.153 76.18,-48.08L76.18,-52.816C76.18,-53.811 75.889,-54.626 75.305,-55.261C74.722,-55.896 73.607,-56.214 71.959,-56.214L56.516,-56.214C54.869,-56.214 53.753,-55.896 53.17,-55.261C52.587,-54.626 52.295,-53.811 52.295,-52.816L52.295,-29.651L48.177,-29.651ZM48.177,-36.858L52.295,-36.858L52.295,-13.178L48.177,-13.178L48.177,-36.858ZM106.861,-13.178L102.743,-13.178L102.743,-36.858L106.861,-36.858L106.861,-13.178ZM77.519,-3.089C76.558,-3.363 75.709,-3.569 74.971,-3.706C74.233,-3.844 73.615,-3.938 73.118,-3.99C72.62,-4.041 72.251,-4.075 72.011,-4.092C71.771,-4.11 71.65,-4.118 71.65,-4.118C72.165,-4.118 72.628,-4.17 73.04,-4.273C73.452,-4.376 73.812,-4.53 74.121,-4.736C74.43,-4.942 74.679,-5.208 74.868,-5.534C75.057,-5.86 75.202,-6.255 75.305,-6.718C75.408,-7.181 75.46,-7.722 75.46,-8.339L75.46,-25.842C75.46,-26.288 75.528,-26.683 75.666,-27.026C75.803,-27.369 76.017,-27.635 76.309,-27.824C76.601,-28.012 77.004,-28.107 77.519,-28.107C78.034,-28.107 78.445,-28.012 78.754,-27.824C79.063,-27.635 79.278,-27.369 79.398,-27.026C79.518,-26.683 79.578,-26.288 79.578,-25.842L79.578,-8.339C79.578,-7.722 79.621,-7.181 79.707,-6.718C79.792,-6.255 79.938,-5.86 80.144,-5.534C80.35,-5.208 80.599,-4.942 80.891,-4.736C81.182,-4.53 81.534,-4.376 81.946,-4.273C82.358,-4.17 82.838,-4.118 83.387,-4.118C83.387,-4.118 83.267,-4.11 83.027,-4.092C82.787,-4.075 82.426,-4.041 81.946,-3.99C81.465,-3.938 80.856,-3.844 80.118,-3.706C79.381,-3.569 78.514,-3.363 77.519,-3.089Z" style="fill:rgb(33,37,41);fill-rule:nonzero;"/>
                        <path id="t" d="M8.643,-18.223L8.643,-41.903L12.761,-41.903L12.761,-18.223L8.643,-18.223ZM8.643,-28.622L12.761,-28.622L12.761,-18.429C12.761,-16.507 12.984,-14.783 13.43,-13.255C13.876,-11.728 14.528,-10.39 15.386,-9.24C16.244,-8.091 17.3,-7.138 18.552,-6.383C19.805,-5.628 21.246,-5.062 22.876,-4.684C24.507,-4.307 26.317,-4.118 28.307,-4.118L30.469,-4.118C30.744,-3.089 30.881,-2.059 30.881,-1.03C30.881,0 30.744,1.03 30.469,2.059L8.643,2.059L8.643,-28.622ZM52.296,-28.724L52.296,2.059L30.469,2.059C30.229,1.03 30.109,0 30.109,-1.03C30.109,-2.059 30.229,-3.089 30.469,-4.118L44.471,-4.118C45.261,-4.118 45.93,-4.247 46.479,-4.504C47.028,-4.762 47.448,-5.139 47.74,-5.637C48.032,-6.134 48.178,-6.761 48.178,-7.516L48.178,-28.724L52.296,-28.724ZM33.97,-25.327C33.97,-25.842 34.064,-26.254 34.253,-26.562C34.442,-26.871 34.708,-27.086 35.051,-27.206C35.394,-27.326 35.789,-27.386 36.235,-27.386L43.957,-27.386C44.609,-27.386 45.166,-27.429 45.63,-27.515C46.093,-27.601 46.479,-27.738 46.788,-27.927C47.097,-28.115 47.337,-28.356 47.508,-28.647C47.68,-28.939 47.817,-29.299 47.92,-29.728C48.023,-30.157 48.109,-30.646 48.178,-31.195C48.178,-31.195 48.221,-30.706 48.306,-29.728C48.392,-28.75 48.692,-27.283 49.207,-25.327C48.692,-23.337 48.392,-21.861 48.306,-20.9C48.221,-19.939 48.178,-19.459 48.178,-19.459C48.109,-20.042 48.023,-20.548 47.92,-20.977C47.817,-21.406 47.68,-21.766 47.508,-22.058C47.337,-22.35 47.097,-22.582 46.788,-22.753C46.479,-22.925 46.093,-23.053 45.63,-23.139C45.166,-23.225 44.609,-23.268 43.957,-23.268L36.235,-23.268C35.789,-23.268 35.394,-23.337 35.051,-23.474C34.708,-23.611 34.442,-23.826 34.253,-24.117C34.064,-24.409 33.97,-24.812 33.97,-25.327ZM8.643,-32.843L8.643,-62.391L40.765,-62.391L40.765,-51.889L52.296,-51.889L52.296,-28.519L48.178,-28.519L48.178,-42.623C48.178,-43.241 48.066,-43.782 47.843,-44.245C47.62,-44.708 47.268,-45.069 46.788,-45.326C46.307,-45.583 45.707,-45.712 44.986,-45.712L39.324,-45.712C38.706,-45.712 38.2,-45.781 37.805,-45.918C37.41,-46.055 37.119,-46.296 36.93,-46.639C36.741,-46.982 36.647,-47.462 36.647,-48.08L36.647,-52.919C36.647,-53.571 36.527,-54.154 36.286,-54.669C36.046,-55.184 35.617,-55.587 34.999,-55.879C34.382,-56.171 33.524,-56.316 32.426,-56.316L16.982,-56.316C15.335,-56.316 14.22,-55.999 13.636,-55.364C13.053,-54.729 12.761,-53.914 12.761,-52.919L12.761,-32.843L8.643,-32.843Z" style="fill:rgb(33,37,41);fill-rule:nonzero;"/>
                        <path id="a" d="M-41.999,-28.724L-37.881,-28.724L-37.881,-18.429C-37.881,-16.507 -37.658,-14.783 -37.212,-13.255C-36.766,-11.728 -36.114,-10.39 -35.256,-9.24C-34.398,-8.091 -33.343,-7.138 -32.09,-6.383C-30.837,-5.628 -29.396,-5.062 -27.766,-4.684C-26.136,-4.307 -24.325,-4.118 -22.335,-4.118L-14.613,-4.118C-14.339,-3.089 -14.201,-2.059 -14.201,-1.03C-14.201,0 -14.339,1.03 -14.613,2.059L-41.999,2.059L-41.999,-28.724ZM-41.999,-21.106L-41.999,-51.889L-14.613,-51.889C-14.339,-50.86 -14.201,-49.83 -14.201,-48.801C-14.201,-47.771 -14.339,-46.742 -14.613,-45.712L-33.66,-45.712C-35.307,-45.712 -36.423,-45.395 -37.006,-44.76C-37.589,-44.125 -37.881,-43.31 -37.881,-42.315L-37.881,-21.106L-41.999,-21.106ZM12.773,-21.106L8.655,-21.106L8.655,-31.401C8.655,-33.323 8.432,-35.048 7.985,-36.575C7.539,-38.102 6.887,-39.44 6.029,-40.59C5.171,-41.74 4.116,-42.692 2.863,-43.447C1.611,-44.202 0.169,-44.768 -1.461,-45.146C-3.091,-45.523 -4.901,-45.712 -6.892,-45.712L-14.613,-45.712C-14.853,-46.742 -14.974,-47.771 -14.974,-48.801C-14.974,-49.83 -14.853,-50.86 -14.613,-51.889L12.773,-51.889L12.773,-21.106ZM12.773,-28.724L12.773,2.059L-14.613,2.059C-14.853,1.03 -14.974,0 -14.974,-1.03C-14.974,-2.059 -14.853,-3.089 -14.613,-4.118L4.433,-4.118C6.081,-4.118 7.196,-4.444 7.78,-5.096C8.363,-5.748 8.655,-6.555 8.655,-7.516L8.655,-28.724L12.773,-28.724ZM12.773,-13.178L8.655,-13.178L8.655,-36.858L12.773,-36.858L12.773,-13.178ZM-9.363,-15.855L-16.672,-15.855C-17.324,-15.855 -17.865,-16.001 -18.294,-16.293C-18.723,-16.584 -18.937,-17.091 -18.937,-17.811C-18.937,-18.532 -18.723,-19.038 -18.294,-19.33C-17.865,-19.622 -17.324,-19.767 -16.672,-19.767L-9.363,-19.767C-8.676,-19.767 -8.127,-19.622 -7.715,-19.33C-7.303,-19.038 -7.098,-18.532 -7.098,-17.811C-7.098,-17.091 -7.303,-16.584 -7.715,-16.293C-8.127,-16.001 -8.676,-15.855 -9.363,-15.855ZM-38.705,-36.549L-37.881,-36.549C-37.881,-35.725 -37.778,-35.031 -37.572,-34.464C-37.366,-33.898 -36.997,-33.469 -36.465,-33.177C-35.934,-32.886 -35.17,-32.74 -34.175,-32.74C-34.175,-32.74 -33.677,-32.783 -32.682,-32.868C-31.687,-32.954 -30.451,-33.057 -28.975,-33.177C-27.5,-33.297 -26.024,-33.418 -24.548,-33.538C-23.073,-33.658 -21.837,-33.761 -20.842,-33.847C-19.847,-33.932 -19.349,-33.975 -19.349,-33.975C-18.869,-34.044 -18.457,-34.018 -18.114,-33.898C-17.771,-33.778 -17.505,-33.563 -17.316,-33.255C-17.127,-32.946 -17.016,-32.568 -16.981,-32.122C-16.947,-31.676 -17.007,-31.298 -17.161,-30.99C-17.316,-30.681 -17.539,-30.432 -17.831,-30.243C-18.122,-30.054 -18.491,-29.926 -18.937,-29.857C-18.937,-29.857 -19.444,-29.814 -20.456,-29.728C-21.468,-29.643 -22.712,-29.54 -24.188,-29.419C-25.664,-29.299 -27.139,-29.171 -28.615,-29.033C-30.091,-28.896 -31.335,-28.793 -32.347,-28.724C-33.36,-28.656 -33.866,-28.622 -33.866,-28.622C-34.827,-28.519 -35.599,-28.338 -36.182,-28.081C-36.766,-27.824 -37.195,-27.446 -37.469,-26.949C-37.744,-26.451 -37.881,-25.773 -37.881,-24.915L-38.705,-24.915L-38.705,-36.549Z" style="fill:rgb(33,37,41);fill-rule:nonzero;"/>
                        <path id="m" d="M-37.88,-19.356L-41.998,-19.356L-41.998,-40.976L-37.88,-40.976L-37.88,-19.356ZM-106.86,-19.356L-106.86,-40.976L-102.741,-40.976L-102.741,-19.356L-106.86,-19.356ZM-72.37,-62.391C-72.267,-62.048 -72.181,-61.198 -72.112,-59.843C-72.044,-58.487 -72.001,-56.908 -71.984,-55.107C-71.966,-53.305 -71.966,-51.52 -71.984,-49.753C-72.001,-47.986 -72.044,-46.467 -72.112,-45.197C-72.181,-43.928 -72.267,-43.173 -72.37,-42.932C-73.09,-42.932 -73.597,-43.121 -73.888,-43.499C-74.18,-43.876 -74.326,-44.339 -74.326,-44.888L-74.326,-45.3C-74.36,-47.703 -74.712,-49.71 -75.381,-51.323C-76.05,-52.936 -77.123,-54.154 -78.598,-54.978C-80.074,-55.802 -82.013,-56.214 -84.415,-56.214L-98.623,-56.214C-100.373,-56.214 -101.497,-55.853 -101.995,-55.133C-102.493,-54.412 -102.741,-53.605 -102.741,-52.713L-102.741,-31.607L-106.86,-31.607L-106.86,-62.391L-72.37,-62.391ZM-106.86,-28.724L-102.741,-28.724L-102.741,-8.031C-102.741,-6.486 -102.364,-5.448 -101.609,-4.916C-100.854,-4.384 -99.687,-4.118 -98.108,-4.118L-72.37,-4.118C-72.095,-3.054 -71.958,-1.982 -71.958,-0.901C-71.958,0.18 -72.095,1.167 -72.37,2.059L-106.86,2.059L-106.86,-28.724ZM-37.88,-28.724L-37.88,2.059L-72.37,2.059C-72.61,1.167 -72.73,0.18 -72.73,-0.901C-72.73,-1.982 -72.61,-3.054 -72.37,-4.118L-46.631,-4.118C-45.018,-4.118 -43.842,-4.384 -43.105,-4.916C-42.367,-5.448 -41.998,-6.486 -41.998,-8.031L-41.998,-28.724L-37.88,-28.724ZM-72.37,-62.391L-37.88,-62.391L-37.88,-31.607L-41.998,-31.607L-41.998,-52.713C-41.998,-53.605 -42.247,-54.412 -42.744,-55.133C-43.242,-55.853 -44.366,-56.214 -46.116,-56.214L-60.324,-56.214C-62.726,-56.214 -64.657,-55.802 -66.115,-54.978C-67.574,-54.154 -68.646,-52.936 -69.332,-51.323C-70.019,-49.71 -70.379,-47.703 -70.414,-45.3L-70.414,-44.888C-70.414,-44.339 -70.559,-43.876 -70.851,-43.499C-71.143,-43.121 -71.649,-42.932 -72.37,-42.932C-72.473,-43.173 -72.558,-43.928 -72.627,-45.197C-72.696,-46.467 -72.739,-47.986 -72.756,-49.753C-72.773,-51.52 -72.773,-53.305 -72.756,-55.107C-72.739,-56.908 -72.696,-58.487 -72.627,-59.843C-72.558,-61.198 -72.473,-62.048 -72.37,-62.391ZM-77.723,-6.795C-77.62,-6.486 -77.5,-6.194 -77.363,-5.92C-77.226,-5.645 -77.071,-5.405 -76.9,-5.199C-76.728,-4.993 -76.522,-4.822 -76.282,-4.684C-76.042,-4.547 -75.767,-4.436 -75.458,-4.35C-75.149,-4.264 -74.789,-4.204 -74.377,-4.17C-73.965,-4.135 -73.502,-4.118 -72.987,-4.118C-72.884,-3.706 -72.97,-3.303 -73.245,-2.908C-73.519,-2.514 -74.077,-2.188 -74.918,-1.93C-75.759,-1.673 -76.968,-1.544 -78.547,-1.544C-79.851,-1.544 -80.966,-1.664 -81.893,-1.905C-82.82,-2.145 -83.557,-2.462 -84.107,-2.857C-84.656,-3.252 -84.999,-3.672 -85.136,-4.118C-83.935,-4.118 -83.128,-4.504 -82.717,-5.276C-82.305,-6.049 -82.288,-7.173 -82.665,-8.648C-82.665,-8.648 -82.777,-9.094 -83,-9.987C-83.223,-10.879 -83.515,-12.037 -83.875,-13.461C-84.235,-14.886 -84.621,-16.387 -85.033,-17.966C-85.445,-19.544 -85.831,-21.046 -86.191,-22.47C-86.552,-23.894 -86.843,-25.052 -87.067,-25.945C-87.29,-26.837 -87.401,-27.283 -87.401,-27.283C-87.538,-27.729 -87.598,-28.141 -87.581,-28.519C-87.564,-28.896 -87.435,-29.214 -87.195,-29.471C-86.955,-29.728 -86.577,-29.926 -86.063,-30.063C-85.582,-30.2 -85.17,-30.217 -84.827,-30.114C-84.484,-30.011 -84.201,-29.814 -83.978,-29.522C-83.755,-29.231 -83.592,-28.862 -83.489,-28.416C-83.489,-28.416 -83.352,-27.901 -83.077,-26.871C-82.802,-25.842 -82.442,-24.503 -81.996,-22.856C-81.55,-21.209 -81.078,-19.459 -80.58,-17.605C-80.083,-15.752 -79.619,-14.002 -79.19,-12.355C-78.761,-10.707 -78.41,-9.369 -78.135,-8.339C-77.861,-7.31 -77.723,-6.795 -77.723,-6.795ZM-66.295,-6.795C-66.295,-6.795 -66.158,-7.318 -65.883,-8.365C-65.609,-9.412 -65.249,-10.75 -64.802,-12.38C-64.356,-14.01 -63.884,-15.752 -63.387,-17.605C-62.889,-19.459 -62.426,-21.209 -61.997,-22.856C-61.568,-24.503 -61.216,-25.842 -60.942,-26.871C-60.667,-27.901 -60.53,-28.416 -60.53,-28.416C-60.427,-28.862 -60.264,-29.231 -60.041,-29.522C-59.818,-29.814 -59.535,-30.011 -59.191,-30.114C-58.848,-30.217 -58.436,-30.2 -57.956,-30.063C-57.441,-29.926 -57.064,-29.728 -56.823,-29.471C-56.583,-29.214 -56.455,-28.896 -56.437,-28.519C-56.42,-28.141 -56.48,-27.729 -56.618,-27.283C-56.618,-27.283 -56.729,-26.837 -56.952,-25.945C-57.175,-25.052 -57.467,-23.894 -57.827,-22.47C-58.188,-21.046 -58.574,-19.544 -58.985,-17.966C-59.397,-16.387 -59.783,-14.886 -60.144,-13.461C-60.504,-12.037 -60.796,-10.879 -61.019,-9.987C-61.242,-9.094 -61.353,-8.648 -61.353,-8.648C-61.697,-7.173 -61.662,-6.049 -61.25,-5.276C-60.839,-4.504 -60.049,-4.118 -58.883,-4.118C-59.02,-3.672 -59.363,-3.252 -59.912,-2.857C-60.461,-2.462 -61.199,-2.145 -62.126,-1.905C-63.052,-1.664 -64.168,-1.544 -65.472,-1.544C-67.05,-1.544 -68.26,-1.673 -69.101,-1.93C-69.942,-2.188 -70.499,-2.514 -70.774,-2.908C-71.048,-3.303 -71.134,-3.706 -71.031,-4.118C-70.516,-4.118 -70.053,-4.135 -69.641,-4.17C-69.23,-4.204 -68.869,-4.264 -68.56,-4.35C-68.251,-4.436 -67.977,-4.547 -67.737,-4.684C-67.496,-4.822 -67.291,-4.993 -67.119,-5.199C-66.947,-5.405 -66.793,-5.645 -66.656,-5.92C-66.518,-6.194 -66.398,-6.486 -66.295,-6.795Z" style="fill:rgb(33,37,41);fill-rule:nonzero;"/>
                    </g>
                    <g id="Math-letters" transform="matrix(0.833333,0,0,0.833333,443.63,69.2063)">
                        <g id="h1" serif:id="h" transform="matrix(1,0,0,1,-511.999,-474.816)">
                            <path d="M614.742,443.414L614.742,467.3C614.742,467.952 614.622,468.535 614.382,469.05C614.142,469.565 613.713,469.968 613.095,470.26C612.477,470.551 611.619,470.697 610.521,470.697L595.387,470.697C594.837,470.697 594.357,470.646 593.945,470.543C593.533,470.44 593.182,470.285 592.89,470.08C592.598,469.874 592.349,469.608 592.143,469.282C591.938,468.956 591.792,468.561 591.706,468.098C591.62,467.634 591.577,467.094 591.577,466.476L591.577,448.974C591.577,448.528 591.517,448.133 591.397,447.79C591.277,447.447 591.062,447.181 590.754,446.992C590.445,446.803 590.033,446.709 589.518,446.709C589.003,446.709 588.6,446.803 588.308,446.992C588.017,447.181 587.802,447.447 587.665,447.79C587.528,448.133 587.459,448.528 587.459,448.974L587.459,466.476C587.459,467.094 587.408,467.634 587.305,468.098C587.202,468.561 587.056,468.956 586.867,469.282C586.678,469.608 586.429,469.874 586.121,470.08C585.812,470.285 585.451,470.44 585.04,470.543C584.628,470.646 584.164,470.697 583.65,470.697L568.515,470.697C567.417,470.697 566.559,470.551 565.941,470.26C565.324,469.968 564.895,469.565 564.654,469.05C564.414,468.535 564.294,467.952 564.294,467.3L564.294,422C564.294,421.004 564.586,420.189 565.169,419.554C565.753,418.919 566.868,418.602 568.515,418.602L583.959,418.602C585.606,418.602 586.721,418.919 587.305,419.554C587.888,420.189 588.18,421.004 588.18,422L588.18,426.735C588.18,427.662 588.394,428.288 588.823,428.614C589.252,428.94 589.93,429.103 590.857,429.103L599.917,429.103C601.907,429.103 603.692,429.292 605.27,429.67C606.849,430.047 608.23,430.613 609.414,431.368C610.598,432.123 611.585,433.076 612.374,434.225C613.164,435.375 613.756,436.714 614.15,438.241C614.545,439.768 614.742,441.492 614.742,443.414Z" style="fill:rgb(248,249,250);"/>
                        </g>
                        <g id="t1" serif:id="t" transform="matrix(1,0,0,1,-511.999,-474.816)">
                            <path d="M560.177,443.62C560.108,444.169 560.023,444.658 559.92,445.087C559.817,445.516 559.679,445.877 559.508,446.168C559.336,446.46 559.096,446.7 558.787,446.889C558.478,447.078 558.092,447.215 557.629,447.301C557.166,447.387 556.608,447.429 555.956,447.429L548.234,447.429C547.788,447.429 547.393,447.489 547.05,447.61C546.707,447.73 546.441,447.944 546.252,448.253C546.064,448.562 545.969,448.974 545.969,449.489C545.969,450.003 546.064,450.407 546.252,450.698C546.441,450.99 546.707,451.204 547.05,451.342C547.393,451.479 547.788,451.548 548.234,451.548L555.956,451.548C556.608,451.548 557.166,451.591 557.629,451.676C558.092,451.762 558.478,451.891 558.787,452.062C559.096,452.234 559.336,452.466 559.508,452.757C559.679,453.049 559.817,453.409 559.92,453.838C560.023,454.267 560.108,454.774 560.177,455.357L560.177,467.3C560.177,468.055 560.031,468.681 559.739,469.179C559.448,469.676 559.027,470.054 558.478,470.311C557.929,470.569 557.26,470.697 556.471,470.697L540.307,470.697C538.316,470.697 536.506,470.509 534.876,470.131C533.246,469.754 531.804,469.187 530.552,468.432C529.299,467.677 528.244,466.725 527.386,465.575C526.528,464.426 525.876,463.087 525.43,461.56C524.999,460.088 524.776,458.432 524.761,456.592C524.761,456.524 524.76,456.455 524.76,456.387L524.76,421.897C524.76,420.901 525.052,420.086 525.635,419.451C526.219,418.816 527.334,418.499 528.982,418.499L544.425,418.499C545.523,418.499 546.381,418.645 546.999,418.937C547.616,419.228 548.045,419.632 548.286,420.146C548.526,420.661 548.646,421.245 548.646,421.897L548.646,426.735C548.646,427.353 548.74,427.834 548.929,428.177C549.118,428.52 549.41,428.76 549.804,428.898C550.199,429.035 550.705,429.103 551.323,429.103L556.985,429.103C557.706,429.103 558.307,429.232 558.787,429.489C559.268,429.747 559.619,430.107 559.842,430.571C560.065,431.034 560.177,431.574 560.177,432.192L560.177,443.62Z" style="fill:rgb(248,249,250);"/>
                        </g>
                        <g id="a1" serif:id="a" transform="matrix(1,0,0,1,-511.999,-474.816)">
                            <path d="M505.108,429.103C507.098,429.103 508.908,429.292 510.539,429.67C512.169,430.047 513.61,430.613 514.863,431.368C516.115,432.123 517.171,433.076 518.029,434.225C518.887,435.375 519.539,436.714 519.985,438.241C520.431,439.768 520.654,441.492 520.654,443.414L520.654,467.3C520.654,468.261 520.362,469.067 519.779,469.719C519.195,470.371 518.08,470.697 516.433,470.697L489.664,470.697C487.674,470.697 485.864,470.509 484.234,470.131C482.603,469.754 481.162,469.187 479.909,468.432C478.657,467.677 477.601,466.725 476.744,465.575C475.886,464.426 475.234,463.087 474.787,461.56C474.341,460.033 474.118,458.308 474.118,456.387L474.118,449.9C474.118,449.042 474.255,448.365 474.53,447.867C474.805,447.369 475.234,446.992 475.817,446.734C476.4,446.477 477.172,446.297 478.133,446.194L479.652,446.091C480.664,446.022 481.908,445.919 483.384,445.782C484.86,445.645 486.336,445.516 487.811,445.396C489.287,445.276 490.531,445.173 491.543,445.087L493.062,444.959C493.508,444.89 493.877,444.761 494.169,444.572C494.46,444.384 494.683,444.135 494.838,443.826C494.992,443.517 495.052,443.14 495.018,442.694C494.984,442.247 494.872,441.87 494.683,441.561C494.495,441.252 494.229,441.038 493.886,440.918C493.542,440.797 493.131,440.772 492.65,440.84L491.157,440.969C490.162,441.055 488.927,441.158 487.451,441.278L483.024,441.638C481.548,441.758 480.313,441.861 479.317,441.947L477.825,442.076C476.829,442.076 476.066,441.93 475.534,441.638C475.002,441.347 474.633,440.918 474.427,440.351C474.221,439.785 474.118,439.09 474.118,438.266L474.118,432.501C474.118,431.506 474.41,430.691 474.993,430.056C475.577,429.421 476.692,429.103 478.339,429.103L505.108,429.103ZM502.637,458.96C503.323,458.96 503.872,458.815 504.284,458.523C504.696,458.231 504.902,457.725 504.902,457.004C504.902,456.284 504.696,455.777 504.284,455.486C503.872,455.194 503.323,455.048 502.637,455.048L495.327,455.048C494.675,455.048 494.134,455.194 493.705,455.486C493.276,455.777 493.062,456.284 493.062,457.004C493.062,457.725 493.276,458.231 493.705,458.523C494.134,458.815 494.675,458.96 495.327,458.96L502.637,458.96Z" style="fill:rgb(248,249,250);"/>
                        </g>
                        <g id="m1" serif:id="m" transform="matrix(1,0,0,1,-511.999,-474.816)">
                            <path d="M439.63,431.883C440.35,431.883 440.857,431.694 441.148,431.317C441.44,430.939 441.586,430.476 441.586,429.927L441.586,429.515C441.62,427.113 441.98,425.105 442.667,423.492C443.353,421.879 444.426,420.661 445.884,419.837C447.343,419.014 449.273,418.602 451.675,418.602L465.883,418.602C467.633,418.602 468.757,418.962 469.255,419.683C469.753,420.404 470.001,421.21 470.001,422.102L470.001,466.785C470.001,468.329 469.632,469.367 468.895,469.899C468.157,470.431 466.981,470.697 465.368,470.697L453.117,470.697C451.95,470.697 451.161,470.311 450.749,469.539C450.337,468.767 450.303,467.643 450.646,466.167L450.98,464.829C451.203,463.937 451.495,462.778 451.856,461.354C452.216,459.93 452.602,458.428 453.014,456.85C453.426,455.271 453.812,453.77 454.172,452.346C454.532,450.921 454.824,449.763 455.047,448.871L455.382,447.532C455.519,447.086 455.579,446.674 455.562,446.297C455.545,445.919 455.416,445.602 455.176,445.345C454.936,445.087 454.558,444.89 454.043,444.753C453.563,444.615 453.151,444.598 452.808,444.701C452.465,444.804 452.182,445.001 451.959,445.293C451.735,445.585 451.572,445.954 451.469,446.4L451.058,447.944C450.783,448.974 450.431,450.312 450.002,451.959C449.573,453.607 449.11,455.357 448.612,457.21C448.115,459.063 447.643,460.805 447.197,462.435C446.751,464.065 446.39,465.404 446.116,466.45L445.704,468.02C445.601,468.329 445.481,468.621 445.344,468.896C445.206,469.17 445.052,469.41 444.88,469.616C444.709,469.822 444.503,469.994 444.263,470.131C444.022,470.268 443.748,470.38 443.439,470.466C443.13,470.551 442.77,470.612 442.358,470.646C441.946,470.68 441.483,470.697 440.968,470.697L439.012,470.697C438.497,470.697 438.034,470.68 437.622,470.646C437.21,470.612 436.85,470.551 436.541,470.466C436.232,470.38 435.958,470.268 435.717,470.131C435.477,469.994 435.271,469.822 435.1,469.616C434.928,469.41 434.774,469.17 434.636,468.896C434.499,468.621 434.379,468.329 434.276,468.02L433.864,466.476C433.59,465.447 433.238,464.108 432.809,462.461C432.38,460.814 431.917,459.063 431.419,457.21C430.921,455.357 430.449,453.607 430.003,451.959C429.557,450.312 429.197,448.974 428.922,447.944L428.51,446.4C428.408,445.954 428.244,445.585 428.021,445.293C427.798,445.001 427.515,444.804 427.172,444.701C426.829,444.598 426.417,444.615 425.937,444.753C425.422,444.89 425.044,445.087 424.804,445.345C424.564,445.602 424.435,445.919 424.418,446.297C424.401,446.674 424.461,447.086 424.598,447.532L424.933,448.871C425.156,449.763 425.448,450.921 425.808,452.346C426.168,453.77 426.554,455.271 426.966,456.85C427.378,458.428 427.764,459.93 428.124,461.354C428.485,462.778 428.776,463.937 428.999,464.829L429.334,466.167C429.712,467.643 429.694,468.767 429.283,469.539C428.871,470.311 428.064,470.697 426.863,470.697L413.891,470.697C412.312,470.697 411.145,470.431 410.39,469.899C409.635,469.367 409.258,468.329 409.258,466.785L409.258,422.102C409.258,421.21 409.507,420.404 410.004,419.683C410.502,418.962 411.626,418.602 413.376,418.602L427.584,418.602C429.986,418.602 431.925,419.014 433.401,419.837C434.877,420.661 435.949,421.879 436.618,423.492C437.287,425.105 437.639,427.113 437.673,429.515L437.673,429.927C437.673,430.476 437.819,430.939 438.111,431.317C438.403,431.694 438.909,431.883 439.63,431.883Z" style="fill:rgb(248,249,250);"/>
                        </g>
                    </g>
                </g>
                <g id="Egg" transform="matrix(1,0,0,1,169.279,-1.7053e-13)">
                    <g id="Egg-blocks" transform="matrix(0.833333,0,0,0.833333,443.63,2.58017)">
                        <path id="g" d="M81.946,-21.106L77.828,-21.106L77.828,-31.401C77.828,-33.323 77.605,-35.048 77.159,-36.575C76.713,-38.102 76.061,-39.44 75.203,-40.59C74.345,-41.74 73.29,-42.692 72.037,-43.447C70.784,-44.202 69.343,-44.768 67.713,-45.146C66.083,-45.523 64.272,-45.712 62.282,-45.712L52.604,-45.712C52.364,-46.742 52.244,-47.771 52.244,-48.801C52.244,-49.83 52.364,-50.86 52.604,-51.889L81.946,-51.889L81.946,-21.106ZM23.262,-21.106L23.262,-51.889L52.604,-51.889C52.879,-50.86 53.016,-49.83 53.016,-48.801C53.016,-47.771 52.879,-46.742 52.604,-45.712L42.926,-45.712C40.936,-45.712 39.126,-45.523 37.496,-45.146C35.865,-44.768 34.424,-44.202 33.171,-43.447C31.919,-42.692 30.864,-41.74 30.006,-40.59C29.148,-39.44 28.496,-38.102 28.049,-36.575C27.603,-35.048 27.38,-33.323 27.38,-31.401L27.38,-21.106L23.262,-21.106ZM50.648,-23.68L50.648,-33.255C50.648,-33.941 50.803,-34.49 51.111,-34.902C51.42,-35.314 51.952,-35.52 52.707,-35.52C53.497,-35.52 54.037,-35.314 54.329,-34.902C54.62,-34.49 54.766,-33.941 54.766,-33.255L54.766,-23.68C54.766,-23.028 54.62,-22.487 54.329,-22.058C54.037,-21.629 53.497,-21.415 52.707,-21.415C51.952,-21.415 51.42,-21.629 51.111,-22.058C50.803,-22.487 50.648,-23.028 50.648,-23.68ZM81.946,-18.223L81.946,12.561L52.604,12.561C52.364,11.531 52.244,10.501 52.244,9.472C52.244,8.442 52.364,7.413 52.604,6.383L62.282,6.383C64.272,6.383 66.083,6.194 67.713,5.817C69.343,5.439 70.784,4.873 72.037,4.118C73.29,3.363 74.345,2.411 75.203,1.261C76.061,0.112 76.713,-1.227 77.159,-2.754C77.605,-4.281 77.828,-6.006 77.828,-7.928L77.828,-18.223L81.946,-18.223ZM81.946,-7.928L77.828,-7.928L77.828,-31.607L81.946,-31.607L81.946,-7.928ZM41.897,-11.634L52.707,-11.634C53.222,-11.634 53.66,-11.565 54.02,-11.428C54.38,-11.291 54.663,-11.068 54.869,-10.759C55.075,-10.45 55.178,-10.055 55.178,-9.575C55.178,-9.06 55.075,-8.648 54.869,-8.339C54.663,-8.031 54.38,-7.816 54.02,-7.696C53.66,-7.576 53.222,-7.516 52.707,-7.516L30.675,-7.516C29.988,-7.516 29.396,-7.387 28.899,-7.13C28.401,-6.872 28.024,-6.46 27.766,-5.894C27.509,-5.328 27.38,-4.564 27.38,-3.603C27.312,-5.079 27.243,-6.726 27.174,-8.545C27.106,-10.364 27.037,-12.226 26.968,-14.131C26.9,-16.035 26.831,-17.846 26.762,-19.561C26.694,-21.277 26.642,-22.753 26.608,-23.989C26.574,-25.224 26.557,-26.082 26.557,-26.562L27.38,-26.562L27.38,-24.092C27.38,-22.479 27.62,-21.011 28.101,-19.69C28.581,-18.369 29.259,-17.202 30.134,-16.19C31.009,-15.177 32.048,-14.337 33.249,-13.667C34.45,-12.998 35.78,-12.492 37.238,-12.149C38.697,-11.806 40.25,-11.634 41.897,-11.634ZM23.262,-18.223L27.38,-18.223L27.38,2.986C27.38,3.947 27.672,4.753 28.255,5.405C28.839,6.057 29.954,6.383 31.601,6.383L52.604,6.383C52.879,7.413 53.016,8.442 53.016,9.472C53.016,10.501 52.879,11.531 52.604,12.561L23.262,12.561L23.262,-18.223ZM23.262,-7.825L23.262,-31.504L27.38,-31.504L27.38,-7.825L23.262,-7.825Z" style="fill:rgb(33,37,41);fill-rule:nonzero;"/>
                        <path id="g1" serif:id="g" d="M27.382,-21.106L23.263,-21.106L23.263,-31.401C23.263,-33.323 23.04,-35.048 22.594,-36.575C22.148,-38.102 21.496,-39.44 20.638,-40.59C19.78,-41.74 18.725,-42.692 17.472,-43.447C16.22,-44.202 14.778,-44.768 13.148,-45.146C11.518,-45.523 9.708,-45.712 7.717,-45.712L-1.961,-45.712C-2.201,-46.742 -2.321,-47.771 -2.321,-48.801C-2.321,-49.83 -2.201,-50.86 -1.961,-51.889L27.382,-51.889L27.382,-21.106ZM-31.303,-21.106L-31.303,-51.889L-1.961,-51.889C-1.686,-50.86 -1.549,-49.83 -1.549,-48.801C-1.549,-47.771 -1.686,-46.742 -1.961,-45.712L-11.638,-45.712C-13.629,-45.712 -15.439,-45.523 -17.069,-45.146C-18.699,-44.768 -20.141,-44.202 -21.393,-43.447C-22.646,-42.692 -23.701,-41.74 -24.559,-40.59C-25.417,-39.44 -26.069,-38.102 -26.515,-36.575C-26.962,-35.048 -27.185,-33.323 -27.185,-31.401L-27.185,-21.106L-31.303,-21.106ZM-3.917,-23.68L-3.917,-33.255C-3.917,-33.941 -3.762,-34.49 -3.453,-34.902C-3.145,-35.314 -2.613,-35.52 -1.858,-35.52C-1.068,-35.52 -0.528,-35.314 -0.236,-34.902C0.056,-34.49 0.201,-33.941 0.201,-33.255L0.201,-23.68C0.201,-23.028 0.056,-22.487 -0.236,-22.058C-0.528,-21.629 -1.068,-21.415 -1.858,-21.415C-2.613,-21.415 -3.145,-21.629 -3.453,-22.058C-3.762,-22.487 -3.917,-23.028 -3.917,-23.68ZM27.382,-18.223L27.382,12.561L-1.961,12.561C-2.201,11.531 -2.321,10.501 -2.321,9.472C-2.321,8.442 -2.201,7.413 -1.961,6.383L7.717,6.383C9.708,6.383 11.518,6.194 13.148,5.817C14.778,5.439 16.22,4.873 17.472,4.118C18.725,3.363 19.78,2.411 20.638,1.261C21.496,0.112 22.148,-1.227 22.594,-2.754C23.04,-4.281 23.263,-6.006 23.263,-7.928L23.263,-18.223L27.382,-18.223ZM27.382,-7.928L23.263,-7.928L23.263,-31.607L27.382,-31.607L27.382,-7.928ZM-12.668,-11.634L-1.858,-11.634C-1.343,-11.634 -0.905,-11.565 -0.545,-11.428C-0.185,-11.291 0.099,-11.068 0.304,-10.759C0.51,-10.45 0.613,-10.055 0.613,-9.575C0.613,-9.06 0.51,-8.648 0.304,-8.339C0.099,-8.031 -0.185,-7.816 -0.545,-7.696C-0.905,-7.576 -1.343,-7.516 -1.858,-7.516L-23.89,-7.516C-24.576,-7.516 -25.168,-7.387 -25.666,-7.13C-26.164,-6.872 -26.541,-6.46 -26.799,-5.894C-27.056,-5.328 -27.185,-4.564 -27.185,-3.603C-27.253,-5.079 -27.322,-6.726 -27.391,-8.545C-27.459,-10.364 -27.528,-12.226 -27.596,-14.131C-27.665,-16.035 -27.734,-17.846 -27.802,-19.561C-27.871,-21.277 -27.922,-22.753 -27.957,-23.989C-27.991,-25.224 -28.008,-26.082 -28.008,-26.562L-27.185,-26.562L-27.185,-24.092C-27.185,-22.479 -26.944,-21.011 -26.464,-19.69C-25.983,-18.369 -25.306,-17.202 -24.431,-16.19C-23.555,-15.177 -22.517,-14.337 -21.316,-13.667C-20.115,-12.998 -18.785,-12.492 -17.327,-12.149C-15.868,-11.806 -14.315,-11.634 -12.668,-11.634ZM-31.303,-18.223L-27.185,-18.223L-27.185,2.986C-27.185,3.947 -26.893,4.753 -26.309,5.405C-25.726,6.057 -24.611,6.383 -22.963,6.383L-1.961,6.383C-1.686,7.413 -1.549,8.442 -1.549,9.472C-1.549,10.501 -1.686,11.531 -1.961,12.561L-31.303,12.561L-31.303,-18.223ZM-31.303,-7.825L-31.303,-31.504L-27.185,-31.504L-27.185,-7.825L-31.303,-7.825Z" style="fill:rgb(33,37,41);fill-rule:nonzero;"/>
                        <path id="e" d="M-81.945,-19.356L-81.945,-40.976L-77.827,-40.976L-77.827,-19.356L-81.945,-19.356ZM-81.945,-28.724L-77.827,-28.724L-77.827,-7.516C-77.827,-6.555 -77.535,-5.748 -76.952,-5.096C-76.368,-4.444 -75.253,-4.118 -73.606,-4.118L-54.559,-4.118C-54.284,-3.089 -54.147,-2.059 -54.147,-1.03C-54.147,0 -54.284,1.03 -54.559,2.059L-81.945,2.059L-81.945,-28.724ZM-81.945,-31.607L-81.945,-62.391L-54.559,-62.391C-54.284,-61.361 -54.147,-60.332 -54.147,-59.302C-54.147,-58.273 -54.284,-57.243 -54.559,-56.214L-73.606,-56.214C-75.253,-56.214 -76.368,-55.896 -76.952,-55.261C-77.535,-54.626 -77.827,-53.811 -77.827,-52.816L-77.827,-31.607L-81.945,-31.607ZM-52.191,-38.505C-52.191,-39.02 -52.097,-39.432 -51.908,-39.741C-51.719,-40.05 -51.453,-40.264 -51.11,-40.384C-50.767,-40.504 -50.372,-40.564 -49.926,-40.564L-35.512,-40.564C-34.86,-40.564 -34.302,-40.607 -33.839,-40.693C-33.376,-40.779 -32.99,-40.916 -32.681,-41.105C-32.372,-41.294 -32.132,-41.534 -31.96,-41.826C-31.789,-42.117 -31.651,-42.478 -31.548,-42.907C-31.445,-43.336 -31.36,-43.825 -31.291,-44.374C-31.291,-44.374 -31.274,-44.159 -31.24,-43.73C-31.205,-43.301 -31.119,-42.649 -30.982,-41.774C-30.845,-40.899 -30.605,-39.809 -30.262,-38.505C-30.776,-36.515 -31.077,-35.039 -31.162,-34.078C-31.248,-33.117 -31.291,-32.637 -31.291,-32.637C-31.36,-33.22 -31.445,-33.726 -31.548,-34.155C-31.651,-34.584 -31.789,-34.945 -31.96,-35.236C-32.132,-35.528 -32.372,-35.76 -32.681,-35.931C-32.99,-36.103 -33.376,-36.232 -33.839,-36.317C-34.302,-36.403 -34.86,-36.446 -35.512,-36.446L-49.926,-36.446C-50.372,-36.446 -50.767,-36.515 -51.11,-36.652C-51.453,-36.789 -51.719,-37.004 -51.908,-37.296C-52.097,-37.587 -52.191,-37.99 -52.191,-38.505ZM-52.191,-21.827C-52.191,-22.341 -52.097,-22.753 -51.908,-23.062C-51.719,-23.371 -51.453,-23.585 -51.11,-23.705C-50.767,-23.826 -50.372,-23.886 -49.926,-23.886L-35.512,-23.886C-34.86,-23.886 -34.302,-23.929 -33.839,-24.014C-33.376,-24.1 -32.99,-24.229 -32.681,-24.4C-32.372,-24.572 -32.132,-24.804 -31.96,-25.095C-31.789,-25.387 -31.651,-25.747 -31.548,-26.176C-31.445,-26.605 -31.36,-27.112 -31.291,-27.695C-31.291,-27.695 -31.248,-27.223 -31.162,-26.279C-31.077,-25.336 -30.776,-23.851 -30.262,-21.827C-30.605,-20.522 -30.845,-19.433 -30.982,-18.558C-31.119,-17.683 -31.205,-17.031 -31.24,-16.602C-31.274,-16.173 -31.291,-15.958 -31.291,-15.958C-31.36,-16.507 -31.445,-16.996 -31.548,-17.425C-31.651,-17.854 -31.789,-18.214 -31.96,-18.506C-32.132,-18.798 -32.372,-19.038 -32.681,-19.227C-32.99,-19.416 -33.376,-19.553 -33.839,-19.639C-34.302,-19.724 -34.86,-19.767 -35.512,-19.767L-49.926,-19.767C-50.372,-19.767 -50.767,-19.836 -51.11,-19.973C-51.453,-20.111 -51.719,-20.325 -51.908,-20.617C-52.097,-20.908 -52.191,-21.312 -52.191,-21.827ZM-27.173,-10.09L-31.291,-10.09L-31.291,-48.183L-27.173,-48.183L-27.173,-10.09ZM-27.173,-28.724L-27.173,2.059L-54.559,2.059C-54.799,1.03 -54.919,0 -54.919,-1.03C-54.919,-2.059 -54.799,-3.089 -54.559,-4.118L-35.512,-4.118C-33.865,-4.118 -32.75,-4.444 -32.166,-5.096C-31.583,-5.748 -31.291,-6.555 -31.291,-7.516L-31.291,-28.724L-27.173,-28.724ZM-27.173,-31.607L-31.291,-31.607L-31.291,-52.816C-31.291,-53.811 -31.583,-54.626 -32.166,-55.261C-32.75,-55.896 -33.865,-56.214 -35.512,-56.214L-54.559,-56.214C-54.799,-57.243 -54.919,-58.273 -54.919,-59.302C-54.919,-60.332 -54.799,-61.361 -54.559,-62.391L-27.173,-62.391L-27.173,-31.607Z" style="fill:rgb(33,37,41);fill-rule:nonzero;"/>
                    </g>
                    <g id="Egg-letters" transform="matrix(0.833333,0,0,0.833333,443.63,2.58017)">
                        <g id="g2" serif:id="g" transform="matrix(1,0,0,1,-511.999,-394.864)">
                            <path d="M574.281,349.152C576.272,349.152 578.082,349.341 579.712,349.718C581.342,350.096 582.784,350.662 584.036,351.417C585.289,352.172 586.344,353.124 587.202,354.274C588.06,355.424 588.712,356.762 589.158,358.289C589.588,359.762 589.812,361.418 589.827,363.257C589.827,363.325 589.828,363.394 589.828,363.463L589.828,386.937C589.828,388.858 589.604,390.583 589.158,392.11C588.712,393.637 588.06,394.976 587.202,396.125C586.344,397.275 585.289,398.227 584.036,398.982C582.784,399.737 581.342,400.304 579.712,400.681C578.082,401.059 576.272,401.247 574.281,401.247L543.601,401.247C541.953,401.247 540.838,400.921 540.255,400.269C539.671,399.617 539.379,398.811 539.379,397.85L539.379,391.261C539.379,390.3 539.508,389.536 539.766,388.97C540.023,388.404 540.4,387.992 540.898,387.734C541.396,387.477 541.988,387.348 542.674,387.348L564.706,387.348C565.221,387.348 565.659,387.288 566.019,387.168C566.379,387.048 566.663,386.834 566.869,386.525C567.074,386.216 567.177,385.804 567.177,385.289C567.177,384.809 567.074,384.414 566.869,384.105C566.663,383.796 566.379,383.573 566.019,383.436C565.659,383.299 565.221,383.23 564.706,383.23L553.896,383.23C552.249,383.23 550.696,383.059 549.237,382.715C547.779,382.372 546.449,381.866 545.248,381.197C544.047,380.528 543.009,379.687 542.134,378.674C541.258,377.662 540.581,376.495 540.1,375.174C539.62,373.853 539.379,372.386 539.379,370.773L539.379,363.463C539.379,363.428 539.38,363.394 539.38,363.36C539.387,361.479 539.611,359.789 540.049,358.289C540.495,356.762 541.147,355.424 542.005,354.274C542.863,353.124 543.918,352.172 545.171,351.417C546.423,350.662 547.865,350.096 549.495,349.718C551.125,349.341 552.935,349.152 554.926,349.152L574.281,349.152ZM562.647,371.184C562.647,371.836 562.802,372.377 563.111,372.806C563.42,373.235 563.951,373.449 564.706,373.449C565.496,373.449 566.036,373.235 566.328,372.806C566.62,372.377 566.766,371.836 566.766,371.184L566.766,361.61C566.766,360.923 566.62,360.374 566.328,359.962C566.036,359.551 565.496,359.345 564.706,359.345C563.951,359.345 563.42,359.551 563.111,359.962C562.802,360.374 562.647,360.923 562.647,361.61L562.647,371.184Z" style="fill:rgb(248,249,250);"/>
                        </g>
                        <g id="g3" serif:id="g" transform="matrix(1,0,0,1,-511.999,-394.864)">
                            <path d="M519.716,349.152C521.707,349.152 523.517,349.341 525.147,349.718C526.777,350.096 528.219,350.662 529.471,351.417C530.724,352.172 531.779,353.124 532.637,354.274C533.495,355.424 534.147,356.762 534.594,358.289C535.024,359.762 535.247,361.418 535.262,363.257C535.263,363.325 535.263,363.394 535.263,363.463L535.263,386.937C535.263,388.858 535.04,390.583 534.594,392.11C534.147,393.637 533.495,394.976 532.637,396.125C531.779,397.275 530.724,398.227 529.471,398.982C528.219,399.737 526.777,400.304 525.147,400.681C523.517,401.059 521.707,401.247 519.716,401.247L489.036,401.247C487.389,401.247 486.273,400.921 485.69,400.269C485.106,399.617 484.815,398.811 484.815,397.85L484.815,391.261C484.815,390.3 484.943,389.536 485.201,388.97C485.458,388.404 485.836,387.992 486.333,387.734C486.831,387.477 487.423,387.348 488.109,387.348L510.142,387.348C510.656,387.348 511.094,387.288 511.454,387.168C511.815,387.048 512.098,386.834 512.304,386.525C512.51,386.216 512.613,385.804 512.613,385.289C512.613,384.809 512.51,384.414 512.304,384.105C512.098,383.796 511.815,383.573 511.454,383.436C511.094,383.299 510.656,383.23 510.142,383.23L499.331,383.23C497.684,383.23 496.131,383.059 494.673,382.715C493.214,382.372 491.884,381.866 490.683,381.197C489.482,380.528 488.444,379.687 487.569,378.674C486.694,377.662 486.016,376.495 485.535,375.174C485.055,373.853 484.815,372.386 484.815,370.773L484.815,363.463C484.815,363.428 484.815,363.394 484.815,363.36C484.823,361.479 485.046,359.789 485.484,358.289C485.93,356.762 486.582,355.424 487.44,354.274C488.298,353.124 489.353,352.172 490.606,351.417C491.859,350.662 493.3,350.096 494.93,349.718C496.56,349.341 498.37,349.152 500.361,349.152L519.716,349.152ZM508.083,371.184C508.083,371.836 508.237,372.377 508.546,372.806C508.855,373.235 509.387,373.449 510.142,373.449C510.931,373.449 511.471,373.235 511.763,372.806C512.055,372.377 512.201,371.836 512.201,371.184L512.201,361.61C512.201,360.923 512.055,360.374 511.763,359.962C511.471,359.551 510.931,359.345 510.142,359.345C509.387,359.345 508.855,359.551 508.546,359.962C508.237,360.374 508.083,360.923 508.083,361.61L508.083,371.184Z" style="fill:rgb(248,249,250);"/>
                        </g>
                        <g id="e1" serif:id="e" transform="matrix(1,0,0,1,-511.999,-394.864)">
                            <path d="M476.487,338.651C478.134,338.651 479.25,338.968 479.833,339.603C480.417,340.238 480.708,341.053 480.708,342.048L480.708,350.49C480.64,351.04 480.554,351.529 480.451,351.958C480.348,352.387 480.211,352.747 480.039,353.039C479.867,353.33 479.627,353.571 479.318,353.759C479.009,353.948 478.623,354.085 478.16,354.171C477.697,354.257 477.139,354.3 476.487,354.3L462.073,354.3C461.627,354.3 461.233,354.36 460.889,354.48C460.546,354.6 460.28,354.815 460.091,355.123C459.903,355.432 459.808,355.844 459.808,356.359C459.808,356.874 459.903,357.277 460.091,357.569C460.28,357.86 460.546,358.075 460.889,358.212C461.233,358.349 461.627,358.418 462.073,358.418L476.487,358.418C477.139,358.418 477.697,358.461 478.16,358.547C478.623,358.632 479.009,358.761 479.318,358.933C479.627,359.104 479.867,359.336 480.039,359.628C480.211,359.919 480.348,360.28 480.451,360.709C480.554,361.138 480.64,361.644 480.708,362.227L480.708,367.169C480.64,367.753 480.554,368.259 480.451,368.688C480.348,369.117 480.211,369.477 480.039,369.769C479.867,370.061 479.627,370.292 479.318,370.464C479.009,370.635 478.623,370.764 478.16,370.85C477.697,370.936 477.139,370.979 476.487,370.979L462.073,370.979C461.627,370.979 461.233,371.039 460.889,371.159C460.546,371.279 460.28,371.493 460.091,371.802C459.903,372.111 459.808,372.523 459.808,373.038C459.808,373.552 459.903,373.956 460.091,374.247C460.28,374.539 460.546,374.754 460.889,374.891C461.233,375.028 461.627,375.097 462.073,375.097L476.487,375.097C477.139,375.097 477.697,375.14 478.16,375.225C478.623,375.311 479.009,375.449 479.318,375.637C479.627,375.826 479.867,376.066 480.039,376.358C480.211,376.65 480.348,377.01 480.451,377.439C480.554,377.868 480.64,378.357 480.708,378.906L480.708,387.348C480.708,388.309 480.417,389.116 479.833,389.768C479.25,390.42 478.134,390.746 476.487,390.746L438.394,390.746C436.746,390.746 435.631,390.42 435.048,389.768C434.464,389.116 434.172,388.309 434.172,387.348L434.172,342.048C434.172,341.053 434.464,340.238 435.048,339.603C435.631,338.968 436.746,338.651 438.394,338.651L476.487,338.651Z" style="fill:rgb(248,249,250);"/>
                        </g>
                    </g>
                </g>
                <g id="Good" transform="matrix(1,0,0,1,0,57.875)">
                    <g id="Good-blocks" transform="matrix(0.833333,0,0,0.833333,443.63,-55.2948)">
                        <path id="d" d="M52.506,-36.858L56.624,-36.858L56.624,-13.178L52.506,-13.178L52.506,-36.858ZM111.19,-36.858L111.19,-13.178L107.072,-13.178L107.072,-36.858L111.19,-36.858ZM52.506,-28.724L56.624,-28.724L56.624,-18.429C56.624,-16.507 56.847,-14.783 57.293,-13.255C57.739,-11.728 58.391,-10.39 59.249,-9.24C60.107,-8.091 61.162,-7.138 62.415,-6.383C63.668,-5.628 65.109,-5.062 66.739,-4.684C68.369,-4.307 70.18,-4.118 72.17,-4.118L81.848,-4.118C82.122,-3.089 82.26,-2.059 82.26,-1.03C82.26,0 82.122,1.03 81.848,2.059L52.506,2.059L52.506,-28.724ZM111.19,-29.651L107.072,-29.651L107.072,-52.816C107.072,-53.811 106.78,-54.626 106.197,-55.261C105.613,-55.896 104.498,-56.214 102.851,-56.214L87.407,-56.214C85.76,-56.214 84.645,-55.896 84.061,-55.261C83.478,-54.626 83.186,-53.811 83.186,-52.816L83.186,-48.08C83.186,-47.153 82.972,-46.527 82.543,-46.201C82.114,-45.875 81.436,-45.712 80.509,-45.712L71.449,-45.712C69.459,-45.712 67.674,-45.523 66.096,-45.146C64.517,-44.768 63.136,-44.202 61.952,-43.447C60.768,-42.692 59.781,-41.74 58.992,-40.59C58.202,-39.44 57.61,-38.102 57.216,-36.575C56.821,-35.048 56.624,-33.323 56.624,-31.401L56.624,-29.548L52.506,-29.548L52.506,-51.889L79.068,-51.889L79.068,-62.391L111.19,-62.391L111.19,-29.651ZM111.19,-28.724L111.19,2.059L81.848,2.059C81.608,1.03 81.487,0 81.487,-1.03C81.487,-2.059 81.608,-3.089 81.848,-4.118L102.851,-4.118C103.949,-4.118 104.807,-4.264 105.425,-4.556C106.042,-4.847 106.471,-5.251 106.712,-5.765C106.952,-6.28 107.072,-6.864 107.072,-7.516L107.072,-28.724L111.19,-28.724ZM80.201,-20.179L80.201,-29.754C80.201,-30.44 80.355,-30.99 80.664,-31.401C80.973,-31.813 81.505,-32.019 82.26,-32.019C83.049,-32.019 83.59,-31.813 83.881,-31.401C84.173,-30.99 84.319,-30.44 84.319,-29.754L84.319,-20.179C84.319,-19.527 84.173,-18.987 83.881,-18.558C83.59,-18.129 83.049,-17.914 82.26,-17.914C81.505,-17.914 80.973,-18.129 80.664,-18.558C80.355,-18.987 80.201,-19.527 80.201,-20.179Z" style="fill:rgb(33,37,41);fill-rule:nonzero;"/>
                        <path id="o" d="M56.625,-13.178L52.507,-13.178L52.507,-36.858L56.625,-36.858L56.625,-13.178ZM56.625,-28.724L56.625,2.059L27.283,2.059C27.043,1.03 26.923,0 26.923,-1.03C26.923,-2.059 27.043,-3.089 27.283,-4.118L36.961,-4.118C38.951,-4.118 40.762,-4.307 42.392,-4.684C44.022,-5.062 45.463,-5.628 46.716,-6.383C47.969,-7.138 49.024,-8.091 49.882,-9.24C50.74,-10.39 51.392,-11.728 51.838,-13.255C52.284,-14.783 52.507,-16.507 52.507,-18.429L52.507,-28.724L56.625,-28.724ZM56.625,-21.106L52.507,-21.106L52.507,-31.401C52.507,-33.323 52.284,-35.048 51.838,-36.575C51.392,-38.102 50.74,-39.44 49.882,-40.59C49.024,-41.74 47.969,-42.692 46.716,-43.447C45.463,-44.202 44.022,-44.768 42.392,-45.146C40.762,-45.523 38.951,-45.712 36.961,-45.712L27.283,-45.712C27.043,-46.742 26.923,-47.771 26.923,-48.801C26.923,-49.83 27.043,-50.86 27.283,-51.889L56.625,-51.889L56.625,-21.106ZM25.224,-20.179L25.224,-29.754C25.224,-30.44 25.378,-30.99 25.687,-31.401C25.996,-31.813 26.528,-32.019 27.283,-32.019C28.072,-32.019 28.613,-31.813 28.905,-31.401C29.196,-30.99 29.342,-30.44 29.342,-29.754L29.342,-20.179C29.342,-19.527 29.196,-18.987 28.905,-18.558C28.613,-18.129 28.072,-17.914 27.283,-17.914C26.528,-17.914 25.996,-18.129 25.687,-18.558C25.378,-18.987 25.224,-19.527 25.224,-20.179ZM-2.059,-13.178L-2.059,-36.858L2.059,-36.858L2.059,-13.178L-2.059,-13.178ZM-2.059,-28.724L2.059,-28.724L2.059,-18.429C2.059,-16.507 2.282,-14.783 2.728,-13.255C3.174,-11.728 3.827,-10.39 4.684,-9.24C5.542,-8.091 6.598,-7.138 7.85,-6.383C9.103,-5.628 10.544,-5.062 12.174,-4.684C13.805,-4.307 15.615,-4.118 17.605,-4.118L27.283,-4.118C27.558,-3.089 27.695,-2.059 27.695,-1.03C27.695,0 27.558,1.03 27.283,2.059L-2.059,2.059L-2.059,-28.724ZM-2.059,-21.106L-2.059,-51.889L27.283,-51.889C27.558,-50.86 27.695,-49.83 27.695,-48.801C27.695,-47.771 27.558,-46.742 27.283,-45.712L17.605,-45.712C15.615,-45.712 13.805,-45.523 12.174,-45.146C10.544,-44.768 9.103,-44.202 7.85,-43.447C6.598,-42.692 5.542,-41.74 4.684,-40.59C3.827,-39.44 3.174,-38.102 2.728,-36.575C2.282,-35.048 2.059,-33.323 2.059,-31.401L2.059,-21.106L-2.059,-21.106Z" style="fill:rgb(33,37,41);fill-rule:nonzero;"/>
                        <path id="o1" serif:id="o" d="M2.061,-13.178L-2.058,-13.178L-2.058,-36.858L2.061,-36.858L2.061,-13.178ZM2.061,-28.724L2.061,2.059L-27.282,2.059C-27.522,1.03 -27.642,0 -27.642,-1.03C-27.642,-2.059 -27.522,-3.089 -27.282,-4.118L-17.604,-4.118C-15.613,-4.118 -13.803,-4.307 -12.173,-4.684C-10.543,-5.062 -9.101,-5.628 -7.849,-6.383C-6.596,-7.138 -5.541,-8.091 -4.683,-9.24C-3.825,-10.39 -3.173,-11.728 -2.727,-13.255C-2.281,-14.783 -2.058,-16.507 -2.058,-18.429L-2.058,-28.724L2.061,-28.724ZM2.061,-21.106L-2.058,-21.106L-2.058,-31.401C-2.058,-33.323 -2.281,-35.048 -2.727,-36.575C-3.173,-38.102 -3.825,-39.44 -4.683,-40.59C-5.541,-41.74 -6.596,-42.692 -7.849,-43.447C-9.101,-44.202 -10.543,-44.768 -12.173,-45.146C-13.803,-45.523 -15.613,-45.712 -17.604,-45.712L-27.282,-45.712C-27.522,-46.742 -27.642,-47.771 -27.642,-48.801C-27.642,-49.83 -27.522,-50.86 -27.282,-51.889L2.061,-51.889L2.061,-21.106ZM-29.341,-20.179L-29.341,-29.754C-29.341,-30.44 -29.186,-30.99 -28.877,-31.401C-28.569,-31.813 -28.037,-32.019 -27.282,-32.019C-26.492,-32.019 -25.952,-31.813 -25.66,-31.401C-25.368,-30.99 -25.222,-30.44 -25.222,-29.754L-25.222,-20.179C-25.222,-19.527 -25.368,-18.987 -25.66,-18.558C-25.952,-18.129 -26.492,-17.914 -27.282,-17.914C-28.037,-17.914 -28.569,-18.129 -28.877,-18.558C-29.186,-18.987 -29.341,-19.527 -29.341,-20.179ZM-56.624,-13.178L-56.624,-36.858L-52.506,-36.858L-52.506,-13.178L-56.624,-13.178ZM-56.624,-28.724L-52.506,-28.724L-52.506,-18.429C-52.506,-16.507 -52.283,-14.783 -51.836,-13.255C-51.39,-11.728 -50.738,-10.39 -49.88,-9.24C-49.022,-8.091 -47.967,-7.138 -46.714,-6.383C-45.462,-5.628 -44.02,-5.062 -42.39,-4.684C-40.76,-4.307 -38.95,-4.118 -36.959,-4.118L-27.282,-4.118C-27.007,-3.089 -26.87,-2.059 -26.87,-1.03C-26.87,0 -27.007,1.03 -27.282,2.059L-56.624,2.059L-56.624,-28.724ZM-56.624,-21.106L-56.624,-51.889L-27.282,-51.889C-27.007,-50.86 -26.87,-49.83 -26.87,-48.801C-26.87,-47.771 -27.007,-46.742 -27.282,-45.712L-36.959,-45.712C-38.95,-45.712 -40.76,-45.523 -42.39,-45.146C-44.02,-44.768 -45.462,-44.202 -46.714,-43.447C-47.967,-42.692 -49.022,-41.74 -49.88,-40.59C-50.738,-39.44 -51.39,-38.102 -51.836,-36.575C-52.283,-35.048 -52.506,-33.323 -52.506,-31.401L-52.506,-21.106L-56.624,-21.106Z" style="fill:rgb(33,37,41);fill-rule:nonzero;"/>
                        <path id="g4" serif:id="g" d="M-111.189,-28.724L-107.07,-28.724L-107.07,-18.429C-107.07,-16.507 -106.847,-14.783 -106.401,-13.255C-105.955,-11.728 -105.303,-10.39 -104.445,-9.24C-103.587,-8.091 -102.532,-7.138 -101.279,-6.383C-100.027,-5.628 -98.585,-5.062 -96.955,-4.684C-95.325,-4.307 -93.515,-4.118 -91.524,-4.118L-81.846,-4.118C-81.572,-3.089 -81.435,-2.059 -81.435,-1.03C-81.435,0 -81.572,1.03 -81.846,2.059L-111.189,2.059L-111.189,-28.724ZM-111.189,-31.607L-111.189,-62.391L-81.846,-62.391C-81.572,-61.361 -81.435,-60.332 -81.435,-59.302C-81.435,-58.273 -81.572,-57.243 -81.846,-56.214L-91.524,-56.214C-93.515,-56.214 -95.325,-56.025 -96.955,-55.647C-98.585,-55.27 -100.027,-54.704 -101.279,-53.949C-102.532,-53.194 -103.587,-52.241 -104.445,-51.092C-105.303,-49.942 -105.955,-48.603 -106.401,-47.076C-106.847,-45.549 -107.07,-43.825 -107.07,-41.903L-107.07,-31.607L-111.189,-31.607ZM-111.189,-19.356L-111.189,-40.976L-107.07,-40.976L-107.07,-19.356L-111.189,-19.356ZM-78.861,-31.298L-78.861,-21.929C-78.861,-21.415 -78.929,-20.986 -79.067,-20.643C-79.204,-20.299 -79.41,-20.051 -79.684,-19.896C-79.959,-19.742 -80.302,-19.664 -80.714,-19.664C-81.126,-19.664 -81.469,-19.742 -81.743,-19.896C-82.018,-20.051 -82.224,-20.299 -82.361,-20.643C-82.498,-20.986 -82.567,-21.415 -82.567,-21.929L-82.567,-33.152C-82.567,-33.632 -82.481,-34.044 -82.31,-34.387C-82.138,-34.73 -81.881,-34.988 -81.538,-35.159C-81.194,-35.331 -80.783,-35.417 -80.302,-35.417L-59.917,-35.417C-59.402,-35.417 -58.939,-35.485 -58.527,-35.622C-58.115,-35.76 -57.772,-35.974 -57.497,-36.266C-57.223,-36.558 -57.008,-36.952 -56.854,-37.45C-56.7,-37.948 -56.622,-38.574 -56.622,-39.329L-56.108,-33.512L-56.622,-27.386C-56.622,-28.827 -56.914,-29.84 -57.497,-30.423C-58.081,-31.007 -58.887,-31.298 -59.917,-31.298L-78.861,-31.298ZM-52.504,-28.724L-52.504,2.059L-81.846,2.059C-82.087,1.03 -82.207,0 -82.207,-1.03C-82.207,-2.059 -82.087,-3.089 -81.846,-4.118L-60.844,-4.118C-59.745,-4.118 -58.887,-4.264 -58.27,-4.556C-57.652,-4.847 -57.223,-5.251 -56.983,-5.765C-56.742,-6.28 -56.622,-6.864 -56.622,-7.516L-56.622,-28.724L-52.504,-28.724ZM-52.504,-31.607L-56.622,-31.607L-56.622,-52.816C-56.622,-53.468 -56.742,-54.051 -56.983,-54.566C-57.223,-55.081 -57.652,-55.484 -58.27,-55.776C-58.887,-56.068 -59.745,-56.214 -60.844,-56.214L-81.846,-56.214C-82.087,-57.243 -82.207,-58.273 -82.207,-59.302C-82.207,-60.332 -82.087,-61.361 -81.846,-62.391L-52.504,-62.391L-52.504,-31.607ZM-52.504,-9.987L-56.622,-9.987L-56.622,-48.08L-52.504,-48.08L-52.504,-9.987Z" style="fill:rgb(33,37,41);fill-rule:nonzero;"/>
                    </g>
                    <g id="Good-letters" transform="matrix(0.833333,0,0,0.833333,443.63,-55.2948)">
                        <g id="d1" serif:id="d" transform="matrix(1,0,0,1,-511.999,-325.414)">
                            <path d="M619.071,317.898C619.071,318.551 618.951,319.134 618.711,319.649C618.471,320.163 618.042,320.567 617.424,320.858C616.806,321.15 615.948,321.296 614.85,321.296L584.169,321.296C582.179,321.296 580.369,321.107 578.738,320.73C577.108,320.352 575.667,319.786 574.414,319.031C573.162,318.276 572.106,317.324 571.248,316.174C570.39,315.024 569.738,313.686 569.292,312.159C568.846,310.632 568.623,308.907 568.623,306.985L568.623,294.013C568.623,292.091 568.82,290.367 569.215,288.839C569.61,287.312 570.202,285.974 570.991,284.824C571.78,283.674 572.767,282.722 573.951,281.967C575.135,281.212 576.516,280.646 578.095,280.268C579.674,279.891 581.458,279.702 583.449,279.702L592.509,279.702C593.435,279.702 594.113,279.539 594.542,279.213C594.971,278.887 595.186,278.261 595.186,277.334L595.186,272.598C595.186,271.603 595.477,270.788 596.061,270.153C596.644,269.518 597.759,269.201 599.407,269.201L614.85,269.201C616.497,269.201 617.613,269.518 618.196,270.153C618.779,270.788 619.071,271.603 619.071,272.598L619.071,317.898ZM592.2,305.235C592.2,305.887 592.354,306.428 592.663,306.857C592.972,307.285 593.504,307.5 594.259,307.5C595.048,307.5 595.589,307.285 595.88,306.857C596.172,306.428 596.318,305.887 596.318,305.235L596.318,295.66C596.318,294.974 596.172,294.425 595.88,294.013C595.589,293.601 595.048,293.395 594.259,293.395C593.504,293.395 592.972,293.601 592.663,294.013C592.354,294.425 592.2,294.974 592.2,295.66L592.2,305.235Z" style="fill:rgb(248,249,250);"/>
                        </g>
                        <g id="o2" serif:id="o" transform="matrix(1,0,0,1,-511.999,-325.414)">
                            <path d="M548.96,279.702C550.951,279.702 552.761,279.891 554.391,280.268C556.021,280.646 557.463,281.212 558.715,281.967C559.968,282.722 561.023,283.674 561.881,284.824C562.739,285.974 563.391,287.312 563.837,288.839C564.283,290.367 564.506,292.091 564.506,294.013L564.506,306.985C564.506,308.907 564.283,310.632 563.837,312.159C563.391,313.686 562.739,315.024 561.881,316.174C561.023,317.324 559.968,318.276 558.715,319.031C557.463,319.786 556.021,320.352 554.391,320.73C552.761,321.107 550.951,321.296 548.96,321.296L529.605,321.296C527.614,321.296 525.804,321.107 524.174,320.73C522.544,320.352 521.102,319.786 519.85,319.031C518.597,318.276 517.542,317.324 516.684,316.174C515.826,315.024 515.174,313.686 514.728,312.159C514.281,310.632 514.058,308.907 514.058,306.985L514.058,294.013C514.058,292.091 514.281,290.367 514.728,288.839C515.174,287.312 515.826,285.974 516.684,284.824C517.542,283.674 518.597,282.722 519.85,281.967C521.102,281.212 522.544,280.646 524.174,280.268C525.804,279.891 527.614,279.702 529.605,279.702L548.96,279.702ZM537.223,305.235C537.223,305.887 537.378,306.428 537.687,306.857C537.995,307.285 538.527,307.5 539.282,307.5C540.072,307.5 540.612,307.285 540.904,306.857C541.196,306.428 541.342,305.887 541.342,305.235L541.342,295.66C541.342,294.974 541.196,294.425 540.904,294.013C540.612,293.601 540.072,293.395 539.282,293.395C538.527,293.395 537.995,293.601 537.687,294.013C537.378,294.425 537.223,294.974 537.223,295.66L537.223,305.235Z" style="fill:rgb(248,249,250);"/>
                        </g>
                        <g id="o3" serif:id="o" transform="matrix(1,0,0,1,-511.999,-325.414)">
                            <path d="M494.395,279.702C496.386,279.702 498.196,279.891 499.826,280.268C501.456,280.646 502.898,281.212 504.15,281.967C505.403,282.722 506.458,283.674 507.316,284.824C508.174,285.974 508.826,287.312 509.273,288.839C509.719,290.367 509.942,292.091 509.942,294.013L509.942,306.985C509.942,308.907 509.719,310.632 509.273,312.159C508.826,313.686 508.174,315.024 507.316,316.174C506.458,317.324 505.403,318.276 504.15,319.031C502.898,319.786 501.456,320.352 499.826,320.73C498.196,321.107 496.386,321.296 494.395,321.296L475.04,321.296C473.049,321.296 471.239,321.107 469.609,320.73C467.979,320.352 466.538,319.786 465.285,319.031C464.032,318.276 462.977,317.324 462.119,316.174C461.261,315.024 460.609,313.686 460.163,312.159C459.717,310.632 459.494,308.907 459.494,306.985L459.494,294.013C459.494,292.091 459.717,290.367 460.163,288.839C460.609,287.312 461.261,285.974 462.119,284.824C462.977,283.674 464.032,282.722 465.285,281.967C466.538,281.212 467.979,280.646 469.609,280.268C471.239,279.891 473.049,279.702 475.04,279.702L494.395,279.702ZM482.659,305.235C482.659,305.887 482.813,306.428 483.122,306.857C483.431,307.285 483.963,307.5 484.718,307.5C485.507,307.5 486.048,307.285 486.339,306.857C486.631,306.428 486.777,305.887 486.777,305.235L486.777,295.66C486.777,294.974 486.631,294.425 486.339,294.013C486.048,293.601 485.507,293.395 484.718,293.395C483.963,293.395 483.431,293.601 483.122,294.013C482.813,294.425 482.659,294.974 482.659,295.66L482.659,305.235Z" style="fill:rgb(248,249,250);"/>
                        </g>
                        <g id="g5" serif:id="g" transform="matrix(1,0,0,1,-511.999,-325.414)">
                            <path d="M451.156,269.201C452.254,269.201 453.112,269.347 453.73,269.638C454.347,269.93 454.776,270.333 455.017,270.848C455.257,271.363 455.377,271.946 455.377,272.598L455.377,286.085C455.377,286.84 455.3,287.467 455.145,287.964C454.991,288.462 454.776,288.857 454.502,289.148C454.227,289.44 453.884,289.654 453.472,289.792C453.06,289.929 452.597,289.998 452.082,289.998L431.697,289.998C431.217,289.998 430.805,290.083 430.462,290.255C430.119,290.427 429.861,290.684 429.69,291.027C429.518,291.37 429.432,291.782 429.432,292.263L429.432,303.485C429.432,304 429.501,304.428 429.638,304.772C429.775,305.115 429.981,305.364 430.256,305.518C430.53,305.673 430.874,305.75 431.285,305.75C431.697,305.75 432.04,305.673 432.315,305.518C432.589,305.364 432.795,305.115 432.933,304.772C433.07,304.428 433.139,304 433.139,303.485L433.139,294.116L452.082,294.116C453.112,294.116 453.918,294.408 454.502,294.991C455.071,295.56 455.363,296.538 455.377,297.925C455.377,297.959 455.377,297.994 455.377,298.028L455.377,317.898C455.377,318.551 455.257,319.134 455.017,319.649C454.776,320.163 454.347,320.567 453.73,320.858C453.112,321.15 452.254,321.296 451.156,321.296L420.475,321.296C418.485,321.296 416.674,321.107 415.044,320.73C413.414,320.352 411.973,319.786 410.72,319.031C409.467,318.276 408.412,317.324 407.554,316.174C406.696,315.024 406.044,313.686 405.598,312.159C405.152,310.632 404.929,308.907 404.929,306.985L404.929,283.511C404.929,281.59 405.152,279.865 405.598,278.338C406.044,276.811 406.696,275.472 407.554,274.323C408.412,273.173 409.467,272.221 410.72,271.466C411.973,270.711 413.414,270.144 415.044,269.767C416.674,269.389 418.485,269.201 420.475,269.201L451.156,269.201Z" style="fill:rgb(248,249,250);"/>
                        </g>
                    </g>
                </g>
            </g>
        </g>
    </g>
</svg>
