<?xml version="1.0" encoding="UTF-8" standalone="no"?><!DOCTYPE svg PUBLIC "-//W3C//DTD SVG 1.1//EN" "http://www.w3.org/Graphics/SVG/1.1/DTD/svg11.dtd"><svg width="100%" height="100%" viewBox="0 0 906 246" version="1.1" xmlns="http://www.w3.org/2000/svg" xmlns:xlink="http://www.w3.org/1999/xlink" xml:space="preserve" xmlns:serif="http://www.serif.com/" style="fill-rule:evenodd;clip-rule:evenodd;stroke-linejoin:round;stroke-miterlimit:2;"><g id="logo-sm"><path id="egg" d="M80.409,-0c44.144,-0 79.556,89.734 79.556,154.721c0,64.987 -35.839,90.586 -79.982,90.586c-44.144,-0 -79.983,-25.599 -79.983,-90.586c0,-64.987 36.266,-154.721 80.409,-154.721Z" style="fill:#1ec1d6;"/><path d="M80.409,0c44.144,0 79.556,89.734 79.556,154.721c0,64.987 -35.839,90.586 -79.982,90.586c-44.144,-0 -79.983,-25.599 -79.983,-90.586c0,-64.987 36.266,-154.721 80.409,-154.721Zm0,2c-17.085,-0 -32.788,14.108 -45.676,34.803c-19.802,31.796 -32.733,79.273 -32.733,117.918c0,31.82 8.676,54.029 22.854,68.251c14.11,14.154 33.618,20.335 55.129,20.335c21.51,-0 41.019,-6.181 55.128,-20.335c14.178,-14.222 22.854,-36.431 22.854,-68.251c0,-38.648 -12.626,-86.129 -32.186,-117.928c-12.725,-20.689 -28.289,-34.793 -45.37,-34.793Z" style="fill:#1ec1d6;"/><g transform="matrix(0.603602,0,0,0.603602,545.44,-103.438)"><g transform="matrix(180,0,0,180,-592.777,423.35)"><path d="M0.478,-0.45l0.032,0l0,0.408c0,0.077 -0.021,0.138 -0.064,0.183c-0.043,0.045 -0.099,0.067 -0.168,0.067c-0.038,-0 -0.075,-0.009 -0.111,-0.026c-0.036,-0.017 -0.064,-0.04 -0.084,-0.068l-0,-0.046c0.017,0.032 0.044,0.059 0.081,0.08c0.037,0.021 0.075,0.032 0.114,0.032c0.059,-0 0.107,-0.02 0.144,-0.06c0.037,-0.039 0.056,-0.093 0.056,-0.162l-0,-0.067c-0.018,0.037 -0.046,0.066 -0.085,0.088c-0.039,0.022 -0.079,0.033 -0.12,0.033c-0.065,-0 -0.121,-0.023 -0.168,-0.07c-0.047,-0.046 -0.07,-0.101 -0.07,-0.166c0,-0.065 0.023,-0.12 0.07,-0.167c0.047,-0.046 0.103,-0.069 0.168,-0.069c0.043,0 0.084,0.011 0.122,0.033c0.037,0.021 0.065,0.051 0.083,0.089l-0,-0.112Zm-0.411,0.226c0,0.057 0.02,0.106 0.062,0.147c0.041,0.041 0.089,0.061 0.146,0.061c0.056,0 0.104,-0.02 0.144,-0.061c0.04,-0.041 0.06,-0.09 0.06,-0.147c-0,-0.057 -0.02,-0.105 -0.06,-0.146c-0.04,-0.041 -0.088,-0.062 -0.145,-0.062c-0.056,0 -0.105,0.021 -0.146,0.062c-0.041,0.041 -0.061,0.089 -0.061,0.146Z" style="fill:#1ec1d6;fill-rule:nonzero;stroke:#1ec1d6;stroke-width:0.02px;"/></g><g transform="matrix(180,0,0,180,-490.177,423.35)"><path d="M0.269,0.011c-0.064,-0 -0.119,-0.024 -0.165,-0.071c-0.046,-0.048 -0.069,-0.104 -0.069,-0.167c0,-0.063 0.023,-0.118 0.07,-0.164c0.047,-0.047 0.103,-0.07 0.169,-0.07c0.065,0 0.121,0.023 0.167,0.07c0.047,0.046 0.07,0.101 0.07,0.165c-0,0.063 -0.023,0.119 -0.068,0.166c-0.045,0.047 -0.1,0.071 -0.165,0.071l-0.009,-0Zm0.21,-0.236c-0,-0.056 -0.02,-0.105 -0.061,-0.146c-0.04,-0.041 -0.088,-0.062 -0.144,-0.062c-0.056,0 -0.105,0.021 -0.146,0.063c-0.041,0.041 -0.061,0.09 -0.061,0.146c-0,0.056 0.02,0.105 0.061,0.146c0.041,0.041 0.09,0.061 0.146,0.061c0.057,0 0.105,-0.02 0.145,-0.061c0.04,-0.041 0.06,-0.09 0.06,-0.147Z" style="fill:#1ec1d6;fill-rule:nonzero;stroke:#1ec1d6;stroke-width:0.02px;"/></g><g transform="matrix(180,0,0,180,-391.897,423.35)"><path d="M0.269,0.011c-0.064,-0 -0.119,-0.024 -0.165,-0.071c-0.046,-0.048 -0.069,-0.104 -0.069,-0.167c0,-0.063 0.023,-0.118 0.07,-0.164c0.047,-0.047 0.103,-0.07 0.169,-0.07c0.065,0 0.121,0.023 0.167,0.07c0.047,0.046 0.07,0.101 0.07,0.165c-0,0.063 -0.023,0.119 -0.068,0.166c-0.045,0.047 -0.1,0.071 -0.165,0.071l-0.009,-0Zm0.21,-0.236c-0,-0.056 -0.02,-0.105 -0.061,-0.146c-0.04,-0.041 -0.088,-0.062 -0.144,-0.062c-0.056,0 -0.105,0.021 -0.146,0.063c-0.041,0.041 -0.061,0.09 -0.061,0.146c-0,0.056 0.02,0.105 0.061,0.146c0.041,0.041 0.09,0.061 0.146,0.061c0.057,0 0.105,-0.02 0.145,-0.061c0.04,-0.041 0.06,-0.09 0.06,-0.147Z" style="fill:#1ec1d6;fill-rule:nonzero;stroke:#1ec1d6;stroke-width:0.02px;"/></g><g transform="matrix(180,0,0,180,-293.617,423.35)"><path d="M0.509,-0.75l0,0.75l-0.032,-0l0,-0.109c-0.02,0.037 -0.049,0.066 -0.087,0.087c-0.038,0.022 -0.077,0.033 -0.117,0.033c-0.066,-0 -0.122,-0.023 -0.168,-0.07c-0.047,-0.046 -0.07,-0.101 -0.07,-0.166c0,-0.065 0.023,-0.12 0.07,-0.167c0.046,-0.046 0.102,-0.069 0.168,-0.069c0.041,0 0.081,0.011 0.12,0.033c0.038,0.022 0.066,0.051 0.084,0.088l0,-0.41l0.032,0Zm-0.442,0.526c0,0.056 0.02,0.105 0.06,0.146c0.04,0.041 0.088,0.061 0.145,0.061c0.056,0 0.104,-0.02 0.145,-0.061c0.041,-0.041 0.062,-0.09 0.062,-0.146c-0,-0.056 -0.021,-0.105 -0.062,-0.146c-0.041,-0.042 -0.089,-0.063 -0.145,-0.063c-0.056,0 -0.104,0.021 -0.145,0.062c-0.04,0.041 -0.06,0.09 -0.06,0.147Z" style="fill:#1ec1d6;fill-rule:nonzero;stroke:#1ec1d6;stroke-width:0.02px;"/></g><g transform="matrix(180,0,0,180,-128.197,423.35)"><path d="M0.285,0.012l-0.009,0c-0.063,-0 -0.119,-0.024 -0.166,-0.071c-0.047,-0.048 -0.07,-0.104 -0.07,-0.167c-0,-0.063 0.023,-0.118 0.07,-0.164c0.047,-0.047 0.104,-0.07 0.173,-0.07c0.069,0 0.128,0.027 0.177,0.082l-0.314,0.31c0.043,0.035 0.085,0.052 0.125,0.052c0.04,0 0.076,-0.009 0.107,-0.027c0.032,-0.019 0.058,-0.043 0.079,-0.074l0,0.051c-0.047,0.052 -0.105,0.078 -0.172,0.078Zm-0.011,-0.444c-0.053,0 -0.1,0.021 -0.141,0.062c-0.041,0.04 -0.061,0.088 -0.061,0.141c-0,0.053 0.018,0.1 0.053,0.14l0.291,-0.289c-0.041,-0.036 -0.088,-0.054 -0.141,-0.054Z" style="fill:#1ec1d6;fill-rule:nonzero;stroke:#1ec1d6;stroke-width:0.02px;"/></g><g transform="matrix(180,0,0,180,-39.0968,423.35)"><path d="M0.478,-0.45l0.032,0l0,0.408c0,0.077 -0.021,0.138 -0.064,0.183c-0.043,0.045 -0.099,0.067 -0.168,0.067c-0.038,-0 -0.075,-0.009 -0.111,-0.026c-0.036,-0.017 -0.064,-0.04 -0.084,-0.068l-0,-0.046c0.017,0.032 0.044,0.059 0.081,0.08c0.037,0.021 0.075,0.032 0.114,0.032c0.059,-0 0.107,-0.02 0.144,-0.06c0.037,-0.039 0.056,-0.093 0.056,-0.162l-0,-0.067c-0.018,0.037 -0.046,0.066 -0.085,0.088c-0.039,0.022 -0.079,0.033 -0.12,0.033c-0.065,-0 -0.121,-0.023 -0.168,-0.07c-0.047,-0.046 -0.07,-0.101 -0.07,-0.166c0,-0.065 0.023,-0.12 0.07,-0.167c0.047,-0.046 0.103,-0.069 0.168,-0.069c0.043,0 0.084,0.011 0.122,0.033c0.037,0.021 0.065,0.051 0.083,0.089l-0,-0.112Zm-0.411,0.226c0,0.057 0.02,0.106 0.062,0.147c0.041,0.041 0.089,0.061 0.146,0.061c0.056,0 0.104,-0.02 0.144,-0.061c0.04,-0.041 0.06,-0.09 0.06,-0.147c-0,-0.057 -0.02,-0.105 -0.06,-0.146c-0.04,-0.041 -0.088,-0.062 -0.145,-0.062c-0.056,0 -0.105,0.021 -0.146,0.062c-0.041,0.041 -0.061,0.089 -0.061,0.146Z" style="fill:#1ec1d6;fill-rule:nonzero;stroke:#1ec1d6;stroke-width:0.02px;"/></g><g transform="matrix(180,0,0,180,63.5032,423.35)"><path d="M0.478,-0.45l0.032,0l0,0.408c0,0.077 -0.021,0.138 -0.064,0.183c-0.043,0.045 -0.099,0.067 -0.168,0.067c-0.038,-0 -0.075,-0.009 -0.111,-0.026c-0.036,-0.017 -0.064,-0.04 -0.084,-0.068l-0,-0.046c0.017,0.032 0.044,0.059 0.081,0.08c0.037,0.021 0.075,0.032 0.114,0.032c0.059,-0 0.107,-0.02 0.144,-0.06c0.037,-0.039 0.056,-0.093 0.056,-0.162l-0,-0.067c-0.018,0.037 -0.046,0.066 -0.085,0.088c-0.039,0.022 -0.079,0.033 -0.12,0.033c-0.065,-0 -0.121,-0.023 -0.168,-0.07c-0.047,-0.046 -0.07,-0.101 -0.07,-0.166c0,-0.065 0.023,-0.12 0.07,-0.167c0.047,-0.046 0.103,-0.069 0.168,-0.069c0.043,0 0.084,0.011 0.122,0.033c0.037,0.021 0.065,0.051 0.083,0.089l-0,-0.112Zm-0.411,0.226c0,0.057 0.02,0.106 0.062,0.147c0.041,0.041 0.089,0.061 0.146,0.061c0.056,0 0.104,-0.02 0.144,-0.061c0.04,-0.041 0.06,-0.09 0.06,-0.147c-0,-0.057 -0.02,-0.105 -0.06,-0.146c-0.04,-0.041 -0.088,-0.062 -0.145,-0.062c-0.056,0 -0.105,0.021 -0.146,0.062c-0.041,0.041 -0.061,0.089 -0.061,0.146Z" style="fill:#1ec1d6;fill-rule:nonzero;stroke:#1ec1d6;stroke-width:0.02px;"/></g><g transform="matrix(180,0,0,180,229.103,423.35)"><path d="M0.372,-0.355c0.01,-0.032 0.029,-0.058 0.057,-0.077c0.029,-0.019 0.063,-0.029 0.104,-0.029c0.041,0 0.076,0.015 0.107,0.044c0.031,0.029 0.046,0.069 0.046,0.119l0,0.298l-0.032,0l0,-0.298c0,-0.039 -0.013,-0.071 -0.038,-0.096c-0.025,-0.026 -0.056,-0.039 -0.092,-0.039c-0.035,0 -0.067,0.013 -0.095,0.04c-0.027,0.027 -0.041,0.058 -0.041,0.093l-0,0.3l-0.032,0l-0,-0.3c-0,-0.036 -0.013,-0.067 -0.038,-0.093c-0.025,-0.027 -0.056,-0.04 -0.092,-0.04c-0.036,0 -0.067,0.013 -0.094,0.04c-0.027,0.027 -0.04,0.058 -0.04,0.093l-0,0.3l-0.032,0l-0,-0.45l0.032,0l-0,0.063c0.013,-0.02 0.033,-0.037 0.059,-0.052c0.027,-0.015 0.054,-0.022 0.082,-0.022c0.029,0 0.056,0.01 0.082,0.03c0.026,0.019 0.045,0.045 0.057,0.076Z" style="fill:#1ec1d6;fill-rule:nonzero;stroke:#1ec1d6;stroke-width:0.04px;"/></g><g transform="matrix(180,0,0,180,363.383,423.35)"><path d="M0.509,-0.45l0,0.45l-0.032,-0l0,-0.112c-0.019,0.038 -0.047,0.068 -0.084,0.09c-0.037,0.022 -0.077,0.033 -0.12,0.033c-0.065,-0 -0.121,-0.023 -0.168,-0.07c-0.047,-0.046 -0.07,-0.101 -0.07,-0.166c0,-0.065 0.023,-0.12 0.07,-0.166c0.047,-0.047 0.103,-0.07 0.168,-0.07c0.043,0 0.084,0.011 0.123,0.034c0.039,0.023 0.066,0.053 0.081,0.09l0,-0.113l0.032,0Zm-0.442,0.226c0,0.056 0.02,0.105 0.062,0.146c0.041,0.041 0.089,0.061 0.146,0.061c0.056,0 0.104,-0.02 0.144,-0.061c0.04,-0.041 0.06,-0.09 0.06,-0.146c-0,-0.057 -0.02,-0.106 -0.061,-0.147c-0.04,-0.041 -0.088,-0.062 -0.144,-0.062c-0.056,0 -0.105,0.021 -0.146,0.063c-0.041,0.041 -0.061,0.09 -0.061,0.146Z" style="fill:#1ec1d6;fill-rule:nonzero;stroke:#1ec1d6;stroke-width:0.04px;"/></g><g transform="matrix(180,0,0,180,465.803,423.35)"><path d="M0.221,-0.022l0,0.028c-0.047,-0 -0.088,-0.016 -0.121,-0.048c-0.033,-0.031 -0.05,-0.072 -0.05,-0.121l0,-0.468l0.032,0l0,0.182l0.138,0l-0,0.028l-0.138,0l-0,0.258c-0,0.041 0.013,0.074 0.04,0.101c0.027,0.027 0.06,0.04 0.099,0.04Z" style="fill:#1ec1d6;fill-rule:nonzero;stroke:#1ec1d6;stroke-width:0.04px;"/></g><g transform="matrix(180,0,0,180,509.183,423.35)"><path d="M0.092,-0l-0.032,-0l0,-0.749l0.032,0l0,0.386c0.033,-0.065 0.091,-0.098 0.173,-0.098c0.056,-0 0.103,0.019 0.141,0.058c0.039,0.039 0.058,0.086 0.058,0.141l0,0.262l-0.032,-0l-0,-0.262c-0,-0.047 -0.016,-0.087 -0.049,-0.121c-0.033,-0.033 -0.072,-0.05 -0.118,-0.05c-0.046,-0 -0.086,0.017 -0.121,0.051c-0.035,0.034 -0.052,0.074 -0.052,0.12l-0,0.262Z" style="fill:#1ec1d6;fill-rule:nonzero;stroke:#1ec1d6;stroke-width:0.04px;"/></g></g></g></svg>