<?xml version="1.0" encoding="UTF-8" standalone="no"?><!DOCTYPE svg PUBLIC "-//W3C//DTD SVG 1.1//EN" "http://www.w3.org/Graphics/SVG/1.1/DTD/svg11.dtd"><svg width="100%" height="100%" viewBox="0 0 283 456" version="1.1" xmlns="http://www.w3.org/2000/svg" xmlns:xlink="http://www.w3.org/1999/xlink" xml:space="preserve" xmlns:serif="http://www.serif.com/" style="fill-rule:evenodd;clip-rule:evenodd;stroke-linejoin:round;stroke-miterlimit:2;"><path d="M132.798,421.63c0.9,-2.88 2.625,-5.19 5.175,-6.93c2.55,-1.74 5.655,-2.61 9.315,-2.61c3.66,-0 6.87,1.32 9.63,3.96c2.76,2.64 4.14,6.21 4.14,10.71l-0,26.82l-2.88,-0l-0,-26.82c-0,-3.48 -1.14,-6.375 -3.42,-8.685c-2.28,-2.31 -5.025,-3.465 -8.235,-3.465c-3.21,-0 -6.06,1.2 -8.55,3.6c-2.49,2.4 -3.735,5.19 -3.735,8.37l-0,27l-2.88,-0l-0,-27c-0,-3.24 -1.14,-6.045 -3.42,-8.415c-2.28,-2.37 -5.04,-3.555 -8.28,-3.555c-3.24,-0 -6.06,1.2 -8.46,3.6c-2.4,2.4 -3.6,5.19 -3.6,8.37l-0,27l-2.88,-0l-0,-40.5l2.88,-0l-0,5.67c1.2,-1.8 2.985,-3.36 5.355,-4.68c2.37,-1.32 4.83,-1.98 7.38,-1.98c2.55,-0 4.995,0.885 7.335,2.655c2.34,1.77 4.05,4.065 5.13,6.885Z" style="fill:#003e45;fill-rule:nonzero;stroke:#003e45;stroke-width:2px;"/><path d="M212.268,413.08l-0,40.5l-2.88,-0l-0,-10.08c-1.68,3.42 -4.2,6.12 -7.56,8.1c-3.36,1.98 -6.96,2.97 -10.8,2.97c-5.88,-0 -10.92,-2.085 -15.12,-6.255c-4.2,-4.17 -6.3,-9.165 -6.3,-14.985c-0,-5.82 2.1,-10.815 6.3,-14.985c4.2,-4.17 9.24,-6.255 15.12,-6.255c3.84,-0 7.515,1.02 11.025,3.06c3.51,2.04 5.955,4.74 7.335,8.1l-0,-10.17l2.88,-0Zm-39.78,20.34c-0,5.04 1.845,9.405 5.535,13.095c3.69,3.69 8.07,5.535 13.14,5.535c5.07,-0 9.405,-1.845 13.005,-5.535c3.6,-3.69 5.4,-8.07 5.4,-13.14c-0,-5.07 -1.815,-9.465 -5.445,-13.185c-3.63,-3.72 -7.965,-5.58 -13.005,-5.58c-5.04,-0 -9.405,1.875 -13.095,5.625c-3.69,3.75 -5.535,8.145 -5.535,13.185Z" style="fill:#003e45;fill-rule:nonzero;stroke:#003e45;stroke-width:2px;"/><path d="M237.558,451.6l-0,2.52c-4.26,-0 -7.89,-1.425 -10.89,-4.275c-3,-2.85 -4.5,-6.495 -4.5,-10.935l-0,-42.12l2.88,-0l-0,16.38l12.42,-0l-0,2.52l-12.42,-0l-0,23.22c-0,3.66 1.215,6.69 3.645,9.09c2.43,2.4 5.385,3.6 8.865,3.6Z" style="fill:#003e45;fill-rule:nonzero;stroke:#003e45;stroke-width:2px;"/><path d="M247.638,453.58l-2.88,-0l-0,-67.41l2.88,-0l-0,34.74c3,-5.88 8.19,-8.82 15.57,-8.82c5.04,-0 9.285,1.74 12.735,5.22c3.45,3.48 5.175,7.71 5.175,12.69l-0,23.58l-2.88,-0l-0,-23.58c-0,-4.2 -1.47,-7.815 -4.41,-10.845c-2.94,-3.03 -6.48,-4.545 -10.62,-4.545c-4.14,-0 -7.77,1.53 -10.89,4.59c-3.12,3.06 -4.68,6.66 -4.68,10.8l-0,23.58Z" style="fill:#003e45;fill-rule:nonzero;stroke:#003e45;stroke-width:2px;"/><path id="egg" d="M133.216,0c73.133,0 131.802,148.665 131.802,256.329c-0,107.665 -59.376,150.076 -132.509,150.076c-73.134,-0 -132.509,-42.411 -132.509,-150.076c0,-107.664 60.082,-256.329 133.216,-256.329Z" style="fill:#003e45;"/><clipPath id="_clip1"><path d="M133.216,0c73.133,0 131.802,148.665 131.802,256.329c-0,107.665 -59.376,150.076 -132.509,150.076c-73.134,-0 -132.509,-42.411 -132.509,-150.076c0,-107.664 60.082,-256.329 133.216,-256.329Z"/></clipPath><g clip-path="url(#_clip1)"><path d="M82.701,374.807l-0.81,-0c-5.7,-0 -10.665,-2.145 -14.895,-6.435c-4.23,-4.29 -6.345,-9.285 -6.345,-14.985c-0,-5.7 2.1,-10.635 6.3,-14.805c4.2,-4.17 9.39,-6.255 15.57,-6.255c6.18,-0 11.49,2.46 15.93,7.38l-28.26,27.9c3.9,3.12 7.65,4.68 11.25,4.68c3.6,-0 6.825,-0.825 9.675,-2.475c2.85,-1.65 5.205,-3.855 7.065,-6.615l-0,4.59c-4.26,4.68 -9.42,7.02 -15.48,7.02Zm-0.945,-39.96c-4.77,-0 -9,1.845 -12.69,5.535c-3.69,3.69 -5.535,7.935 -5.535,12.735c-0,4.8 1.59,9 4.77,12.6l26.19,-26.01c-3.72,-3.24 -7.965,-4.86 -12.735,-4.86Z" style="fill:#ebebeb;fill-rule:nonzero;"/><path d="M144.621,333.227l2.88,-0l-0,36.72c-0,6.96 -1.92,12.45 -5.76,16.47c-3.84,4.02 -8.88,6.03 -15.12,6.03c-3.42,-0 -6.75,-0.78 -9.99,-2.34c-3.24,-1.56 -5.76,-3.6 -7.56,-6.12l-0,-4.14c1.56,2.88 4.005,5.28 7.335,7.2c3.33,1.92 6.735,2.88 10.215,2.88c5.28,-0 9.6,-1.785 12.96,-5.355c3.36,-3.57 5.04,-8.445 5.04,-14.625l-0,-6.03c-1.62,3.3 -4.17,5.94 -7.65,7.92c-3.48,1.98 -7.08,2.97 -10.8,2.97c-5.88,-0 -10.92,-2.085 -15.12,-6.255c-4.2,-4.17 -6.3,-9.165 -6.3,-14.985c-0,-5.82 2.1,-10.815 6.3,-14.985c4.2,-4.17 9.24,-6.255 15.12,-6.255c3.9,-0 7.545,0.975 10.935,2.925c3.39,1.95 5.895,4.635 7.515,8.055l-0,-10.08Zm-36.99,20.34c-0,5.1 1.845,9.495 5.535,13.185c3.69,3.69 8.07,5.535 13.14,5.535c5.07,-0 9.405,-1.845 13.005,-5.535c3.6,-3.69 5.4,-8.085 5.4,-13.185c-0,-5.1 -1.8,-9.495 -5.4,-13.185c-3.6,-3.69 -7.935,-5.535 -13.005,-5.535c-5.07,-0 -9.45,1.845 -13.14,5.535c-3.69,3.69 -5.535,8.085 -5.535,13.185Z" style="fill:#ebebeb;fill-rule:nonzero;"/><path d="M195.921,333.227l2.88,-0l-0,36.72c-0,6.96 -1.92,12.45 -5.76,16.47c-3.84,4.02 -8.88,6.03 -15.12,6.03c-3.42,-0 -6.75,-0.78 -9.99,-2.34c-3.24,-1.56 -5.76,-3.6 -7.56,-6.12l-0,-4.14c1.56,2.88 4.005,5.28 7.335,7.2c3.33,1.92 6.735,2.88 10.215,2.88c5.28,-0 9.6,-1.785 12.96,-5.355c3.36,-3.57 5.04,-8.445 5.04,-14.625l-0,-6.03c-1.62,3.3 -4.17,5.94 -7.65,7.92c-3.48,1.98 -7.08,2.97 -10.8,2.97c-5.88,-0 -10.92,-2.085 -15.12,-6.255c-4.2,-4.17 -6.3,-9.165 -6.3,-14.985c-0,-5.82 2.1,-10.815 6.3,-14.985c4.2,-4.17 9.24,-6.255 15.12,-6.255c3.9,-0 7.545,0.975 10.935,2.925c3.39,1.95 5.895,4.635 7.515,8.055l-0,-10.08Zm-36.99,20.34c-0,5.1 1.845,9.495 5.535,13.185c3.69,3.69 8.07,5.535 13.14,5.535c5.07,-0 9.405,-1.845 13.005,-5.535c3.6,-3.69 5.4,-8.085 5.4,-13.185c-0,-5.1 -1.8,-9.495 -5.4,-13.185c-3.6,-3.69 -7.935,-5.535 -13.005,-5.535c-5.07,-0 -9.45,1.845 -13.14,5.535c-3.69,3.69 -5.535,8.085 -5.535,13.185Z" style="fill:#ebebeb;fill-rule:nonzero;"/><path d="M46.431,260.837l2.88,-0l-0,36.72c-0,6.96 -1.92,12.45 -5.76,16.47c-3.84,4.02 -8.88,6.03 -15.12,6.03c-3.42,-0 -6.75,-0.78 -9.99,-2.34c-3.24,-1.56 -5.76,-3.6 -7.56,-6.12l-0,-4.14c1.56,2.88 4.005,5.28 7.335,7.2c3.33,1.92 6.735,2.88 10.215,2.88c5.28,-0 9.6,-1.785 12.96,-5.355c3.36,-3.57 5.04,-8.445 5.04,-14.625l-0,-6.03c-1.62,3.3 -4.17,5.94 -7.65,7.92c-3.48,1.98 -7.08,2.97 -10.8,2.97c-5.88,-0 -10.92,-2.085 -15.12,-6.255c-4.2,-4.17 -6.3,-9.165 -6.3,-14.985c-0,-5.82 2.1,-10.815 6.3,-14.985c4.2,-4.17 9.24,-6.255 15.12,-6.255c3.9,-0 7.545,0.975 10.935,2.925c3.39,1.95 5.895,4.635 7.515,8.055l-0,-10.08Zm-36.99,20.34c-0,5.1 1.845,9.495 5.535,13.185c3.69,3.69 8.07,5.535 13.14,5.535c5.07,-0 9.405,-1.845 13.005,-5.535c3.6,-3.69 5.4,-8.085 5.4,-13.185c-0,-5.1 -1.8,-9.495 -5.4,-13.185c-3.6,-3.69 -7.935,-5.535 -13.005,-5.535c-5.07,-0 -9.45,1.845 -13.14,5.535c-3.69,3.69 -5.535,8.085 -5.535,13.185Z" style="fill:#ebebeb;fill-rule:nonzero;"/><path d="M78.921,302.327c-5.76,-0 -10.71,-2.145 -14.85,-6.435c-4.14,-4.29 -6.21,-9.285 -6.21,-14.985c-0,-5.7 2.1,-10.635 6.3,-14.805c4.2,-4.17 9.255,-6.255 15.165,-6.255c5.91,-0 10.95,2.085 15.12,6.255c4.17,4.17 6.255,9.12 6.255,14.85c-0,5.73 -2.04,10.725 -6.12,14.985c-4.08,4.26 -9.03,6.39 -14.85,6.39l-0.81,-0Zm18.9,-21.195c-0,-5.07 -1.815,-9.465 -5.445,-13.185c-3.63,-3.72 -7.965,-5.58 -13.005,-5.58c-5.04,-0 -9.405,1.875 -13.095,5.625c-3.69,3.75 -5.535,8.145 -5.535,13.185c-0,5.04 1.845,9.405 5.535,13.095c3.69,3.69 8.07,5.535 13.14,5.535c5.07,-0 9.405,-1.845 13.005,-5.535c3.6,-3.69 5.4,-8.07 5.4,-13.14Z" style="fill:#ebebeb;fill-rule:nonzero;"/><path d="M128.061,302.327c-5.76,-0 -10.71,-2.145 -14.85,-6.435c-4.14,-4.29 -6.21,-9.285 -6.21,-14.985c-0,-5.7 2.1,-10.635 6.3,-14.805c4.2,-4.17 9.255,-6.255 15.165,-6.255c5.91,-0 10.95,2.085 15.12,6.255c4.17,4.17 6.255,9.12 6.255,14.85c-0,5.73 -2.04,10.725 -6.12,14.985c-4.08,4.26 -9.03,6.39 -14.85,6.39l-0.81,-0Zm18.9,-21.195c-0,-5.07 -1.815,-9.465 -5.445,-13.185c-3.63,-3.72 -7.965,-5.58 -13.005,-5.58c-5.04,-0 -9.405,1.875 -13.095,5.625c-3.69,3.75 -5.535,8.145 -5.535,13.185c-0,5.04 1.845,9.405 5.535,13.095c3.69,3.69 8.07,5.535 13.14,5.535c5.07,-0 9.405,-1.845 13.005,-5.535c3.6,-3.69 5.4,-8.07 5.4,-13.14Z" style="fill:#ebebeb;fill-rule:nonzero;"/><path d="M198.801,233.837l-0,67.5l-2.88,-0l-0,-9.81c-1.8,3.3 -4.41,5.925 -7.83,7.875c-3.42,1.95 -6.93,2.925 -10.53,2.925c-5.94,-0 -10.995,-2.085 -15.165,-6.255c-4.17,-4.17 -6.255,-9.165 -6.255,-14.985c-0,-5.82 2.085,-10.815 6.255,-14.985c4.17,-4.17 9.225,-6.255 15.165,-6.255c3.72,-0 7.305,0.99 10.755,2.97c3.45,1.98 5.985,4.62 7.605,7.92l-0,-36.9l2.88,-0Zm-39.78,47.295c-0,5.07 1.8,9.45 5.4,13.14c3.6,3.69 7.935,5.535 13.005,5.535c5.07,-0 9.45,-1.845 13.14,-5.535c3.69,-3.69 5.535,-8.055 5.535,-13.095c-0,-5.04 -1.845,-9.435 -5.535,-13.185c-3.69,-3.75 -8.055,-5.625 -13.095,-5.625c-5.04,-0 -9.375,1.86 -13.005,5.58c-3.63,3.72 -5.445,8.115 -5.445,13.185Z" style="fill:#ebebeb;fill-rule:nonzero;"/></g></svg>